<?xml version="1.0" standalone="no"?>
<!DOCTYPE svg PUBLIC "-//W3C//DTD SVG 20010904//EN"
 "http://www.w3.org/TR/2001/REC-SVG-20010904/DTD/svg10.dtd">
<svg version="1.0" xmlns="http://www.w3.org/2000/svg"
 width="1280.000000pt" height="720.000000pt" viewBox="0 0 1280.000000 720.000000"
 preserveAspectRatio="xMidYMid meet">

<g transform="translate(0.000000,720.000000) scale(0.100000,-0.100000)"
fill="#000000" stroke="none">
<path d="M0 3600 l0 -3600 6400 0 6400 0 0 800 c0 616 -3 800 -12 800 -9 0 -9
3 0 12 9 9 12 645 12 2800 l0 2788 -6400 0 -6400 0 0 -3600z m8252 3049 c69
-29 117 -67 164 -129 39 -51 49 -76 33 -86 -5 -3 -9 -1 -9 4 0 4 -14 19 -31
31 -18 13 -29 19 -25 12 5 -7 -1 -11 -14 -11 -12 0 -19 4 -15 9 3 5 1 12 -5
16 -5 3 -10 0 -10 -7 0 -9 -3 -10 -8 -2 -4 6 -17 14 -30 18 -12 4 -20 11 -17
15 2 5 -7 13 -21 20 -14 6 -23 15 -20 19 3 5 -8 6 -25 4 -27 -4 -28 -5 -12
-18 10 -7 24 -14 31 -14 7 0 11 -4 7 -10 -3 -5 12 -14 34 -21 21 -6 52 -22 67
-35 25 -19 27 -25 15 -36 -10 -9 -12 -9 -7 0 4 6 2 12 -3 12 -15 0 -14 -11 5
-31 15 -16 14 -17 -7 -12 -16 4 -20 3 -15 -6 16 -24 109 -107 138 -121 34 -16
34 -36 3 -122 -14 -39 -23 -49 -52 -59 -37 -12 -49 -8 -40 14 3 9 16 12 36 9
24 -3 30 -1 26 10 -3 8 1 21 10 28 14 12 14 15 -1 31 -19 21 -40 26 -28 7 5
-8 0 -9 -17 -5 -13 4 -31 7 -39 7 -13 0 -13 2 -1 9 12 8 12 12 2 25 -11 13
-11 16 2 16 29 0 11 35 -34 67 -44 30 -54 51 -35 81 4 6 4 17 1 22 -11 17 -87
47 -175 70 -47 12 -100 31 -117 43 -33 22 -43 39 -22 35 19 -5 21 20 2 25 -13
3 -9 7 15 12 17 4 32 13 32 20 0 24 90 36 153 21 31 -7 57 -12 57 -10 0 2 -14
11 -32 20 -24 12 -49 15 -102 11 -40 -2 -72 -10 -74 -16 -2 -6 -22 -21 -43
-32 -22 -11 -37 -24 -34 -28 2 -5 -8 -11 -23 -13 -15 -3 -35 -9 -44 -13 -36
-15 -17 20 25 47 99 63 148 79 214 74 34 -3 86 -15 115 -27z m-452 4 c65 -44
66 -73 3 -62 -26 5 -49 6 -52 1 -8 -11 -81 -11 -81 0 0 5 -4 6 -10 3 -14 -9
-13 1 5 35 8 15 20 30 27 33 28 12 85 6 108 -10z m-113 -144 c66 2 95 -9 61
-22 -8 -3 -6 -6 5 -6 9 -1 17 -8 17 -16 0 -8 5 -15 10 -15 6 0 10 3 10 8 0 4
11 12 25 19 19 8 25 8 25 -1 0 -40 -86 -49 -151 -16 -36 19 -42 19 -72 6 -17
-8 -47 -17 -65 -21 -26 -5 -31 -10 -22 -20 9 -11 2 -15 -35 -21 -28 -4 -50 -3
-54 3 -3 5 -15 15 -26 21 -19 11 -18 11 7 12 20 0 26 4 22 15 -4 10 0 15 12
16 11 1 28 2 39 3 11 1 33 3 48 4 29 2 30 6 9 61 -4 10 7 6 28 -9 29 -21 43
-23 107 -21z m316 3 c-2 -7 3 -12 11 -12 7 0 31 -7 52 -16 51 -22 25 -31 -28
-10 -59 24 -57 14 3 -13 27 -13 49 -25 47 -27 -2 -2 -28 3 -58 11 -65 17 -70
18 -50 5 8 -5 47 -19 85 -31 106 -32 127 -40 80 -31 -22 4 -60 6 -85 5 -53 -3
-126 30 -134 61 -7 27 0 32 21 15 14 -12 16 -12 8 0 -6 11 -4 13 11 7 15 -6
17 -5 7 5 -15 15 -17 33 -3 24 6 -3 15 -3 22 1 8 5 6 10 -8 16 -18 8 -18 8 1
5 11 -2 19 -9 18 -15z m-701 -40 c-1 -9 10 -12 39 -10 23 2 43 -1 45 -7 5 -13
-66 -13 -86 0 -20 13 -40 15 -40 5 0 -10 -69 -34 -76 -27 -3 2 14 16 38 31 44
26 85 31 80 8z m-112 -11 c0 -5 -13 -11 -29 -14 -20 -4 -43 -24 -73 -64 -75
-98 -91 -130 -84 -166 4 -23 3 -28 -4 -17 -8 13 -10 12 -10 -2 0 -10 -8 -26
-19 -37 -11 -11 -16 -24 -11 -31 5 -7 6 -20 3 -27 -5 -12 -7 -12 -14 -1 -6 8
-9 -1 -9 -27 0 -23 -9 -59 -20 -80 -22 -42 -28 -82 -30 -180 l-1 -60 -16 29
c-20 37 -13 148 16 251 21 75 85 220 101 230 6 3 10 18 10 31 0 35 44 94 103
138 47 34 87 47 87 27z m1205 0 c-3 -6 3 -18 14 -28 20 -19 20 -19 -9 -18 -20
0 -26 3 -19 11 5 7 9 16 8 20 -2 14 0 24 7 24 3 0 3 -4 -1 -9z m-209 -23 c4
-6 -2 -7 -17 -3 -35 10 -45 23 -15 18 15 -3 29 -10 32 -15z m-440 -26 c-4 -3
-14 2 -24 12 -16 18 -16 18 6 6 13 -6 21 -14 18 -18z m-251 -32 c3 -5 15 -10
26 -10 17 0 19 -4 13 -22 -4 -13 -7 -36 -6 -53 2 -38 -9 -57 -28 -45 -11 7
-11 12 -2 23 10 12 9 16 -4 21 -13 5 -14 9 -4 21 10 12 10 15 -1 16 -10 0 -11
2 -1 6 19 7 14 23 -7 23 -21 0 -34 13 -24 24 10 9 31 7 38 -4z m461 -55 c60
-3 117 -8 126 -11 9 -3 26 -7 39 -9 37 -7 35 -15 -4 -15 -33 0 -37 -3 -35 -25
1 -14 6 -25 10 -25 4 0 8 -7 8 -15 0 -19 -4 -19 -39 0 -27 13 -31 13 -56 -7
-24 -19 -26 -26 -23 -73 1 -29 0 -51 -4 -48 -13 7 -9 -52 5 -70 9 -13 21 -15
50 -11 39 7 51 24 17 24 -11 0 -20 4 -20 10 0 11 42 9 50 -2 3 -4 11 10 17 32
9 35 8 39 -5 28 -12 -10 -14 -9 -11 7 5 23 48 36 95 28 37 -6 47 -23 13 -23
-27 0 -19 -24 9 -28 39 -6 26 -31 -14 -28 -27 2 -46 -5 -75 -26 -36 -26 -38
-31 -28 -51 7 -12 16 -25 22 -28 15 -10 -47 -39 -70 -33 -15 4 -33 -5 -62 -31
-23 -21 -41 -43 -41 -49 0 -7 -12 -23 -26 -35 -20 -18 -24 -28 -20 -49 5 -20
4 -23 -4 -12 -8 13 -10 13 -10 -2 0 -9 25 -42 55 -74 57 -61 66 -80 40 -91
-14 -5 -14 -8 1 -32 10 -14 25 -33 35 -42 10 -8 26 -44 35 -80 10 -35 23 -71
30 -79 31 -37 69 -185 80 -312 5 -66 4 -78 -9 -78 -18 0 -30 -37 -14 -43 9 -3
8 -18 -1 -58 -7 -30 -13 -60 -14 -66 -2 -15 -18 -18 -18 -3 0 6 -6 10 -14 10
-8 0 -21 9 -29 20 -13 18 -15 19 -21 5 -4 -11 5 -22 28 -36 19 -11 39 -33 44
-48 14 -38 5 -201 -14 -286 -26 -112 -38 -155 -44 -155 -3 0 -16 21 -30 48
-30 57 -96 130 -153 168 -52 36 -63 44 -88 67 -10 9 -21 17 -23 17 -2 0 -28
16 -57 35 -51 33 -79 42 -92 29 -9 -9 3 -34 17 -34 17 0 113 -63 113 -75 0 -5
16 -14 36 -20 42 -12 80 -44 73 -62 -3 -7 1 -25 9 -40 13 -24 15 -25 15 -7 0
11 -5 25 -12 32 -9 9 -8 12 5 12 16 0 77 -107 77 -135 0 -6 16 -28 36 -49 33
-35 35 -42 30 -80 -5 -29 -2 -47 8 -61 12 -15 14 -35 9 -81 -3 -41 -2 -64 6
-68 14 -9 15 -220 1 -246 -12 -22 9 -67 60 -130 43 -52 80 -121 80 -148 0 -10
-5 -23 -12 -30 -18 -18 22 -55 77 -71 33 -10 49 -21 56 -37 4 -13 15 -24 23
-24 8 0 21 -8 28 -19 7 -10 29 -26 48 -36 28 -14 124 -88 150 -115 45 -47 161
-128 310 -216 170 -100 300 -203 300 -238 0 -7 17 -26 38 -43 23 -19 51 -59
75 -106 39 -79 59 -145 39 -133 -6 3 -13 2 -16 -3 -12 -18 -46 1 -46 26 0 43
-18 66 -47 58 -14 -3 -30 -2 -36 4 -15 12 -131 51 -152 51 -9 0 -18 7 -21 15
-4 9 -13 14 -22 13 -9 -2 -18 7 -23 24 -6 22 -3 28 12 33 20 7 26 24 9 27 -29
4 -33 1 -37 -21 -5 -35 -9 -36 -56 -24 -28 8 -43 8 -46 2 -2 -6 -10 -1 -18 10
-8 12 -23 21 -33 21 -10 0 -25 6 -32 13 -7 8 -18 12 -25 10 -6 -2 -14 1 -18 6
-3 6 -17 11 -30 11 -13 0 -37 11 -53 25 -17 14 -38 25 -49 25 -10 0 -32 18
-49 39 -32 42 -37 42 -72 -3 -17 -23 -23 -25 -28 -13 -3 9 -16 23 -29 31 -22
15 -27 15 -60 -1 -38 -18 -61 -10 -32 12 22 16 19 62 -3 56 -54 -14 -175 -2
-130 13 30 9 80 12 82 5 2 -5 9 -5 17 0 25 16 3 28 -61 34 -50 4 -69 2 -101
-14 -21 -11 -40 -19 -42 -17 -6 6 20 35 42 46 12 7 21 20 21 30 0 9 3 25 7 35
13 31 -14 18 -57 -29 -24 -25 -49 -56 -57 -68 -18 -29 -66 -56 -101 -56 -16 0
-32 -5 -36 -11 -3 -6 -23 -18 -43 -28 l-36 -16 105 -5 c89 -4 105 -8 108 -22
4 -22 -38 -23 -173 -7 -135 17 -189 40 -257 112 -49 52 -59 59 -73 47 -13 -11
-15 -10 -10 3 4 8 2 17 -3 21 -5 3 -15 -10 -22 -29 -15 -38 -30 -44 -50 -19
-8 8 -29 22 -48 29 -18 8 -51 29 -73 46 -21 17 -43 28 -48 25 -11 -7 0 -52 20
-84 12 -19 10 -25 -19 -55 -17 -18 -32 -36 -32 -40 0 -4 -8 -17 -19 -28 -19
-20 -19 -20 -29 9 -8 24 -6 35 8 58 11 15 22 46 26 68 7 43 21 77 36 87 5 3
-9 25 -30 48 -24 26 -41 38 -44 30 -3 -8 -11 -10 -22 -6 -14 5 -17 15 -14 37
6 37 1 38 -13 4 -5 -15 -12 -24 -15 -21 -6 6 16 56 49 112 l24 40 -23 46 c-33
67 -84 265 -84 329 0 31 9 88 20 129 l21 73 -39 34 c-22 18 -54 56 -72 83 -30
47 -31 53 -20 88 7 21 21 53 32 72 10 18 18 41 17 50 -1 9 2 25 6 35 6 14 2
24 -16 38 -13 11 -32 25 -41 33 -54 44 -19 220 72 361 20 30 20 33 3 62 -17
29 -17 31 10 71 15 23 25 46 22 51 -17 28 -34 181 -29 256 5 57 2 114 -10 186
-22 131 -19 190 9 194 27 4 57 -5 50 -17 -4 -5 -1 -9 5 -9 6 0 9 -4 6 -9 -3
-5 1 -11 9 -15 16 -6 21 -36 6 -36 -5 0 -23 17 -41 38 -39 46 -23 11 19 -42
17 -21 31 -45 31 -52 0 -9 11 -14 28 -14 49 0 57 -17 11 -24 -59 -9 -41 -20
31 -17 48 2 60 -1 60 -13 0 -8 -8 -19 -17 -25 -16 -8 -14 -10 10 -16 15 -4 27
-13 27 -21 0 -8 5 -14 11 -14 5 0 7 -4 4 -10 -3 -5 -2 -10 4 -10 5 0 13 -10
16 -22 4 -13 16 -44 27 -70 22 -53 41 -60 83 -32 35 23 154 5 189 -27 11 -11
25 -19 30 -19 6 0 24 -16 39 -35 15 -19 33 -35 38 -35 6 0 40 -30 76 -66 37
-36 77 -73 89 -83 13 -10 36 -44 53 -77 17 -32 40 -70 51 -84 l20 -25 -20 48
c-11 27 -18 52 -15 57 5 8 -45 82 -82 120 -29 29 -47 60 -35 60 4 0 23 -16 42
-35 19 -19 38 -35 44 -35 6 0 -8 18 -29 40 -21 22 -43 40 -48 40 -9 0 -71 50
-164 130 -28 25 -77 59 -109 75 -35 19 -51 31 -40 33 32 7 113 -29 147 -64 19
-20 47 -45 63 -57 26 -18 29 -19 23 -3 -6 14 -3 16 14 11 l21 -7 -21 21 c-12
12 -21 28 -21 36 0 8 -4 15 -10 15 -5 0 -10 5 -10 11 0 5 5 7 10 4 6 -3 10 -1
10 4 0 18 -5 26 -14 23 -5 -2 -6 4 -2 13 3 9 1 25 -4 36 -14 25 -4 25 123 -1
55 -11 115 -20 134 -20 19 0 44 -5 56 -11 22 -10 22 -10 2 6 -11 9 -29 18 -40
20 -11 2 -74 13 -140 24 -282 49 -400 72 -410 82 -7 7 5 9 40 4 46 -6 163 -30
193 -40 7 -3 4 11 -9 36 -27 54 -20 69 28 63 29 -4 34 -3 23 5 -8 6 -22 11
-31 11 -26 0 -80 45 -68 57 7 7 5 15 -5 26 -14 14 -14 16 0 21 9 3 20 4 25 0
5 -3 9 -3 9 0 0 15 -41 26 -60 16 -21 -11 -24 -6 -21 33 1 9 -5 24 -13 33 -17
17 -22 89 -7 98 5 3 7 15 4 26 -3 11 -1 20 5 20 5 0 12 -9 15 -20 3 -11 1 -20
-3 -20 -10 0 17 -88 33 -107 5 -7 15 -13 23 -13 14 0 -6 60 -47 145 -10 22
-19 56 -19 75 -1 47 -15 21 -25 -43 -8 -56 -16 -54 -25 6 -3 25 -11 41 -18 39
-7 -1 -12 3 -12 9 0 5 -4 7 -10 4 -5 -3 -10 0 -10 7 -1 8 -6 6 -15 -6 -14 -18
-16 -17 -34 25 -11 24 -20 38 -20 30 -1 -21 21 -95 32 -106 7 -7 8 -6 3 3 -4
6 -2 12 4 12 6 0 9 -17 6 -44 -5 -53 18 -74 29 -26 8 36 25 50 25 21 0 -12 -5
-21 -11 -21 -6 0 -9 -20 -6 -52 2 -41 -1 -57 -16 -75 -11 -12 -24 -20 -30 -16
-5 3 -12 1 -16 -5 -4 -6 -13 2 -23 19 -14 24 -15 29 -3 29 20 0 29 42 21 98
-6 46 -26 83 -26 49 0 -27 -30 -8 -37 24 -5 28 -17 37 -26 22 -2 -5 -3 -3 -1
4 1 6 -3 19 -11 29 -11 15 -15 16 -28 5 -13 -10 -20 -10 -39 3 -40 28 -98 18
-98 -18 -1 -20 -1 -20 -15 4 -8 14 -14 33 -15 44 0 16 -2 17 -17 5 -15 -13
-16 -9 -9 54 4 38 14 88 23 110 8 23 18 67 22 97 6 48 7 52 14 27 4 -16 5 -44
1 -63 -5 -29 -3 -34 12 -34 11 1 30 7 44 15 15 9 54 14 101 15 103 0 187 17
229 45 20 14 44 22 55 19 22 -5 46 30 95 136 32 70 49 98 50 83 0 -19 20 -16
28 5 12 29 36 61 42 57 4 -2 56 -7 116 -10z m-179 -17 c-3 -8 -6 -5 -6 6 -1
11 2 17 5 13 3 -3 4 -12 1 -19z m583 -40 c0 -5 -9 -3 -20 4 -11 7 -20 16 -20
20 0 5 9 3 20 -4 11 -7 20 -16 20 -20z m-15 -26 c-3 -3 -11 0 -18 7 -9 10 -8
11 6 5 10 -3 15 -9 12 -12z m-828 -14 c15 -7 32 -19 37 -26 7 -12 10 -12 17
-1 4 7 11 10 15 6 4 -4 1 -14 -7 -21 -19 -19 -181 -27 -197 -10 -9 10 -3 14
26 17 32 3 34 5 15 12 -42 14 -22 31 39 34 15 0 40 -5 55 -11z m-156 -17 c-8
-5 -20 -7 -28 -4 -21 8 -15 13 15 13 20 0 23 -3 13 -9z m666 -28 c-24 -28 -25
-57 -2 -61 26 -5 62 -42 41 -42 -19 0 -76 51 -76 69 0 17 29 51 43 51 6 0 3
-8 -6 -17z m-417 -48 c-7 -9 -15 -13 -17 -11 -7 7 7 26 19 26 6 0 6 -6 -2 -15z
m840 -71 c0 -14 -3 -15 -17 -3 -10 7 -20 15 -22 16 -2 2 5 3 17 3 14 0 22 -6
22 -16z m-170 -4 c0 -3 -5 -12 -10 -20 -9 -13 -11 -13 -20 0 -14 22 -12 26 10
26 11 0 20 -3 20 -6z m50 -98 c0 -17 -4 -33 -9 -36 -4 -3 -6 6 -3 19 2 15 -4
34 -17 51 -11 14 -18 30 -15 36 10 15 44 -39 44 -70z m-4390 39 c0 -5 -3 -17
-6 -25 -6 -15 -8 -15 -19 1 -10 13 -10 20 -2 25 16 10 27 10 27 -1z m4467 -93
c-4 -12 -33 -15 -69 -9 -17 3 -6 20 25 39 31 18 32 18 41 1 5 -10 6 -24 3 -31z
m-86 -62 c11 -12 12 -36 2 -36 -5 0 -18 8 -31 18 -21 17 -22 18 -5 42 17 23
18 24 21 5 2 -11 8 -24 13 -29z m-74 -22 c-3 -3 -12 -4 -19 -1 -8 3 -5 6 6 6
11 1 17 -2 13 -5z m-847 -324 c0 -5 -5 -10 -11 -10 -5 0 -7 5 -4 10 3 6 8 10
11 10 2 0 4 -4 4 -10z m68 -88 c-18 -3 -26 -32 -9 -32 5 0 11 -7 15 -15 12
-32 -16 -13 -30 20 -18 44 -19 43 14 37 19 -4 22 -7 10 -10z m32 -32 c0 -5 -5
-10 -11 -10 -5 0 -7 5 -4 10 3 6 8 10 11 10 2 0 4 -4 4 -10z m-4761 -39 c232
-92 367 -350 306 -585 -45 -171 -162 -302 -321 -356 -242 -84 -500 23 -615
255 -132 268 -2 586 282 691 97 36 250 33 348 -5z m4831 -39 c0 -10 11 -30 25
-45 18 -19 21 -27 11 -27 -21 0 -56 48 -56 77 0 14 4 21 10 18 6 -3 10 -14 10
-23z m-3366 -33 c3 -3 -15 -44 -42 -92 l-47 -86 -192 -1 -191 0 -36 -65 c-20
-36 -36 -68 -36 -70 0 -3 81 -5 181 -5 139 0 180 -3 177 -12 -2 -7 -23 -50
-48 -95 l-45 -83 -191 0 -191 0 -53 -92 c-30 -51 -67 -117 -83 -145 l-29 -53
-110 0 -110 0 20 33 c10 17 34 59 52 92 18 33 75 131 127 218 51 87 93 160 93
162 0 12 126 215 148 238 44 47 61 52 197 58 157 7 401 6 409 -2z m616 -106
c-35 -59 -74 -128 -88 -153 -42 -75 -41 -75 -146 -78 -52 -2 -100 -1 -105 2
-5 4 8 36 30 75 21 37 39 70 39 73 0 3 -33 6 -74 7 l-74 2 -42 -73 c-156 -269
-200 -347 -200 -352 0 -3 35 -6 78 -6 l77 0 36 68 35 67 107 3 c82 2 107 0
106 -10 0 -7 -40 -80 -88 -163 l-86 -150 -252 -3 c-249 -2 -252 -2 -272 20
-30 32 -26 65 19 142 22 37 40 69 40 71 0 2 257 444 281 483 8 12 32 35 53 50
l39 27 271 5 c149 3 273 4 275 3 2 -1 -25 -51 -59 -110z m1480 104 c0 -6 -40
-80 -90 -164 -49 -84 -90 -157 -90 -163 0 -5 20 -10 45 -10 l46 0 -27 -47
c-76 -137 -72 -133 -118 -133 -23 0 -49 -6 -58 -12 -14 -12 -78 -112 -78 -123
0 -3 -15 -28 -33 -57 -19 -29 -36 -61 -40 -70 -6 -16 -21 -18 -117 -18 l-111
0 43 78 c23 42 56 102 74 132 18 30 30 58 27 62 -2 5 -48 8 -101 8 -111 0
-137 10 -164 60 -25 46 -19 75 36 169 24 42 54 94 66 116 12 22 40 70 62 108
l39 67 104 0 c58 0 105 -2 105 -5 0 -7 -53 -103 -122 -218 -32 -54 -58 -102
-58 -108 0 -6 30 -9 76 -7 l77 3 89 155 c49 85 94 162 101 170 16 19 217 26
217 7z m-721 -23 c12 -15 21 -32 21 -38 0 -9 -91 -172 -230 -413 l-25 -43
-186 0 -187 0 -25 -42 -25 -43 184 -3 c101 -1 184 -4 184 -6 0 -12 -104 -178
-114 -182 -6 -2 -140 -3 -298 -2 l-287 3 104 179 c159 273 166 278 386 278
102 -1 151 3 157 11 5 7 26 42 46 80 l36 67 -74 0 -75 0 -28 -50 -28 -50 -113
0 c-62 0 -111 3 -109 8 51 94 114 195 135 215 57 55 69 57 309 57 l222 0 20
-26z m3588 -480 c-3 -3 -12 -4 -19 -1 -8 3 -5 6 6 6 11 1 17 -2 13 -5z m-3247
-455 c0 -22 -5 -29 -20 -29 -15 0 -20 7 -20 28 0 34 7 43 26 35 8 -3 14 -18
14 -34z m-1771 -109 c4 0 13 -11 19 -25 31 -67 -2 -145 -61 -145 -38 0 -77 35
-77 69 0 54 60 118 98 105 8 -2 17 -4 21 -4z m1375 -46 c24 -9 19 -44 -11 -70
l-27 -23 -13 26 c-14 26 -5 57 19 66 7 3 14 6 15 6 1 1 8 -2 17 -5z m-344
-254 c0 -5 -5 -10 -11 -10 -5 0 -7 5 -4 10 3 6 8 10 11 10 2 0 4 -4 4 -10z
m656 -10 c29 -12 24 -23 -15 -35 -15 -5 -21 -4 -17 3 3 6 2 13 -4 17 -13 8
-13 25 -1 25 5 0 22 -5 37 -10z m86 -36 c37 -18 138 -132 151 -169 12 -34 -17
-70 -73 -91 -25 -9 -66 -29 -93 -45 -56 -34 -71 -38 -33 -8 30 23 35 42 9 32
-17 -6 -17 -6 -1 10 9 9 25 17 35 18 14 0 15 2 3 6 -32 12 -41 48 -10 38 14
-5 20 -2 20 9 0 9 -4 16 -10 16 -5 0 -10 12 -10 28 l0 27 15 -25 c8 -14 20
-35 26 -47 7 -13 16 -23 20 -23 8 0 -12 62 -22 70 -4 3 -13 24 -19 48 -16 51
-25 46 -26 -15 -1 -24 -7 -50 -14 -56 -8 -8 -11 -8 -7 -1 4 6 0 31 -7 55 l-14
44 -12 -32 c-10 -29 -14 -31 -32 -22 -18 10 -20 9 -15 -5 4 -9 2 -16 -3 -16
-16 0 -40 31 -33 43 3 7 2 9 -2 4 -5 -4 -17 0 -27 10 -17 15 -18 15 -18 0 0
-10 -7 -17 -15 -17 -11 0 -12 -5 -5 -25 11 -29 -1 -33 -25 -9 -8 9 -24 14 -35
11 -13 -3 -17 -1 -13 9 8 21 -3 17 -33 -11 -15 -14 -32 -24 -38 -22 -16 5 -13
29 4 37 8 4 32 16 53 26 20 10 37 23 37 27 0 5 15 6 34 3 25 -5 43 -1 69 14
24 14 37 17 42 10 4 -7 21 2 46 25 21 19 41 35 44 35 2 0 19 -7 37 -16z m-141
-4 c6 0 7 -5 4 -11 -4 -5 -12 -8 -18 -6 -7 2 -18 -2 -25 -10 -8 -7 -18 -10
-23 -7 -15 9 22 46 39 39 7 -3 18 -5 23 -5z m-210 -64 c-6 -8 -24 -16 -39 -18
-15 -3 -33 -7 -41 -9 -7 -2 -16 2 -18 9 -3 8 7 12 31 12 20 0 36 5 36 10 0 6
10 10 21 10 17 0 19 -3 10 -14z m59 -6 c-20 -13 -43 -13 -35 0 3 6 16 10 28
10 18 0 19 -2 7 -10z m-175 -75 c-11 -8 -24 -18 -30 -23 -6 -6 -20 -5 -34 2
-22 10 -21 11 25 22 27 6 51 12 54 12 3 1 -4 -5 -15 -13z m415 -20 c0 -8 -4
-15 -10 -15 -5 0 -7 7 -4 15 4 8 8 15 10 15 2 0 4 -7 4 -15z m455 -148 c39
-14 135 -46 215 -72 209 -67 320 -109 317 -120 -4 -10 -47 -38 -84 -55 -13 -5
-23 -14 -23 -20 0 -13 47 -13 55 0 3 6 13 10 21 10 11 0 14 -9 12 -36 -4 -46
-27 -63 -61 -45 -13 7 -33 11 -44 9 -11 -1 -27 3 -36 11 -15 12 -17 11 -17 -3
0 -9 -4 -16 -10 -16 -5 0 -10 -9 -10 -20 0 -13 -7 -20 -19 -20 -11 0 -26 -8
-33 -18 -25 -35 -33 -31 -29 16 1 26 9 54 17 63 12 13 11 18 -6 37 -12 12 -37
31 -58 41 -20 10 -46 28 -56 40 -11 12 -30 21 -43 21 -16 0 -27 7 -30 20 -7
25 -23 26 -23 3 0 -10 -9 -29 -19 -42 l-18 -24 -7 34 c-5 19 -10 28 -13 22 -7
-19 -21 -16 -28 7 -9 30 -54 50 -82 37 -17 -7 -33 -5 -72 12 -27 11 -61 21
-75 21 -32 0 -34 12 -4 25 12 6 24 17 28 25 4 8 12 25 19 38 9 19 9 26 -4 39
-9 8 -13 20 -10 27 3 6 8 18 11 27 5 14 17 10 77 -26 40 -23 104 -54 142 -68z
m-942 57 c-3 -8 -9 -14 -15 -14 -5 0 -7 4 -3 9 3 5 1 12 -5 16 -6 4 -8 11 -4
16 9 15 34 -10 27 -27z m493 9 c-8 -8 -36 5 -36 17 0 7 6 7 21 0 11 -7 18 -14
15 -17z m-136 13 c0 -2 3 -12 7 -22 5 -13 3 -16 -10 -11 -10 4 -20 0 -27 -11
-6 -10 -13 -13 -17 -7 -5 6 -19 12 -33 13 -35 5 -39 12 -6 12 16 0 25 4 21 10
-3 6 -2 10 4 10 5 0 11 -5 13 -11 2 -5 11 -7 22 -3 14 5 15 9 4 15 -10 7 -9 9
5 9 9 0 17 -2 17 -4z m340 -26 c0 -5 -5 -10 -11 -10 -5 0 -7 5 -4 10 3 6 8 10
11 10 2 0 4 -4 4 -10z m10 -30 c0 -5 -5 -10 -11 -10 -5 0 -7 5 -4 10 3 6 8 10
11 10 2 0 4 -4 4 -10z m-65 -60 c3 -5 -1 -10 -9 -10 -9 0 -16 5 -16 10 0 6 4
10 9 10 6 0 13 -4 16 -10z m-1385 -130 c0 -5 -5 -10 -11 -10 -5 0 -7 5 -4 10
3 6 8 10 11 10 2 0 4 -4 4 -10z m2330 -45 c66 -26 170 -84 170 -95 0 -4 -10
-12 -22 -19 -13 -7 -44 -39 -70 -72 -40 -51 -47 -57 -53 -40 -6 21 13 67 51
117 28 36 29 44 10 44 -8 0 -42 -30 -76 -67 l-62 -68 -23 28 c-15 16 -30 25
-39 21 -19 -7 -20 5 -2 29 9 11 12 33 8 62 -3 35 0 50 13 65 22 25 18 25 95
-5z m-4440 -375 c0 -5 -2 -10 -4 -10 -3 0 -8 5 -11 10 -3 6 -1 10 4 10 6 0 11
-4 11 -10z m5740 -139 c0 -19 -32 -32 -115 -47 -48 -8 -89 -13 -91 -11 -6 6
65 33 131 49 78 20 75 19 75 9z m26 -86 c-11 -8 -31 -15 -45 -14 -22 1 -19 3
14 14 52 17 54 17 31 0z m-2786 -24 c0 -11 -5 -23 -10 -26 -6 -4 -8 -11 -5
-16 8 -12 -22 -42 -35 -34 -11 7 -14 78 -3 88 3 4 17 7 30 7 16 0 23 -6 23
-19z m2525 -71 c7 -12 -2 -12 -30 0 -19 8 -19 9 2 9 12 1 25 -3 28 -9z m17
-40 l33 -20 -42 0 c-36 0 -43 3 -43 20 0 25 11 25 52 0z m912 -195 c-7 -17
-20 -20 -28 -6 -4 5 0 12 6 14 23 9 28 7 22 -8z m46 -45 c0 -5 -4 -10 -9 -10
-6 0 -13 5 -16 10 -3 6 1 10 9 10 9 0 16 -4 16 -10z m368 -93 c9 -20 25 -40
34 -43 10 -3 18 -9 18 -14 0 -4 20 -35 45 -67 53 -72 51 -89 -15 -126 -54 -31
-61 -32 -54 -14 2 7 -8 29 -23 48 -21 25 -35 33 -53 31 -39 -5 -83 -23 -107
-45 -13 -11 -26 -18 -29 -14 -13 13 7 38 56 68 36 22 48 34 39 40 -10 6 -10
11 2 25 13 16 12 17 -11 11 -30 -9 -70 -16 -52 -10 7 3 10 9 6 14 -3 5 -2 8 3
7 5 -2 19 7 33 20 13 12 33 22 44 22 10 0 16 3 13 7 -4 3 -3 11 3 18 6 8 1 11
-18 10 -17 0 -26 -6 -24 -14 3 -14 -15 -31 -32 -31 -6 0 -1 7 10 15 27 21 3
18 -57 -5 -28 -12 -54 -18 -57 -16 -3 3 4 8 14 12 10 4 52 22 92 41 68 32 85
47 61 55 -6 2 -7 11 -3 22 7 17 8 17 26 -5 10 -13 26 -41 36 -62z m-93 43 c-3
-5 0 -10 7 -10 9 0 9 -3 -2 -10 -8 -5 -22 -7 -30 -5 -8 2 -22 0 -30 -5 -13 -9
-13 -10 0 -10 36 -2 -66 -41 -116 -45 -31 -2 -62 -9 -70 -16 -8 -6 -40 -12
-72 -13 -54 -1 -57 0 -60 24 -2 23 -1 24 11 8 8 -10 27 -18 43 -18 29 0 292
86 309 101 12 12 18 11 10 -1z m2283 -122 c-3 -7 -13 -15 -24 -17 -16 -3 -17
-1 -5 13 16 19 34 21 29 4z m-1482 -41 c5 -15 -1 -27 -20 -44 -31 -27 -36 -27
-60 -10 -26 19 -14 74 17 79 35 6 56 -3 63 -25z m199 -59 c8 -22 -24 -58 -50
-58 -12 0 -32 11 -44 24 -44 47 5 100 62 68 15 -9 29 -24 32 -34z m-1581 -3
c31 -21 67 -52 80 -69 44 -56 163 -176 174 -176 7 0 12 -7 12 -16 0 -8 -4 -12
-10 -9 -5 3 -10 3 -10 0 0 -10 20 -32 66 -74 15 -13 15 -16 -2 -28 -16 -12
-25 -7 -78 47 -33 33 -65 60 -72 60 -7 0 -19 8 -26 19 -18 26 -71 51 -107 51
-43 0 -58 -30 -66 -131 -7 -80 -9 -87 -35 -102 -21 -13 -40 -15 -75 -11 -50 7
-78 35 -104 101 -7 17 -19 34 -27 37 -8 3 -20 19 -25 36 -6 16 -14 28 -19 25
-4 -2 -5 7 -2 20 3 16 0 25 -9 25 -17 0 -59 40 -59 57 0 7 -7 13 -16 13 -8 0
-13 4 -10 9 3 4 -12 16 -33 26 -34 15 -61 17 -223 11 -100 -3 -222 -8 -269
-12 -76 -6 -87 -5 -92 11 -9 22 -6 26 40 50 21 10 45 24 53 31 23 18 70 23
280 30 107 3 196 7 198 9 1 1 94 1 206 1 l204 -2 56 -39z m350 19 c-7 -3 -10
-13 -7 -22 3 -13 -2 -18 -16 -18 -12 0 -21 6 -21 13 0 7 -4 13 -10 13 -5 0
-10 5 -10 10 0 6 17 10 38 9 20 0 32 -3 26 -5z m-2334 -32 c0 -43 -28 -63 -86
-60 -48 2 -49 3 -32 20 10 10 18 22 18 28 0 11 56 38 83 39 12 1 17 -7 17 -27z
m-1506 -33 c15 -23 12 -43 -12 -71 -13 -16 -12 -18 9 -27 34 -13 72 -56 71
-83 0 -13 -10 -40 -22 -60 -20 -34 -26 -38 -64 -38 -34 0 -48 6 -71 29 -24 26
-27 35 -22 68 4 22 15 44 27 52 20 13 28 41 12 41 -5 0 -18 9 -31 21 -22 21
-22 48 3 75 19 22 83 17 100 -7z m4908 -11 c34 -40 35 -74 3 -110 -26 -30 -45
-34 -93 -17 -59 20 -53 115 8 146 38 19 52 16 82 -19z m-560 -2 c14 -21 8 -55
-16 -83 -21 -25 -26 -26 -50 -15 l-27 12 31 33 c17 17 29 39 27 48 -5 18 24
22 35 5z m-4173 -19 c23 -19 31 -53 18 -81 -23 -50 -73 -46 -107 10 -19 30
-20 37 -8 52 33 42 61 47 97 19z m6181 13 c0 -5 5 -10 11 -10 16 0 48 -42 49
-62 0 -10 -4 -18 -10 -18 -16 0 -12 -70 5 -86 8 -9 15 -30 15 -49 0 -30 -3
-33 -37 -40 -21 -4 -42 -10 -48 -15 -22 -17 -85 -19 -101 -3 -8 9 -12 19 -7
22 4 3 10 13 12 21 14 58 22 81 41 130 13 30 27 62 32 70 5 8 11 23 14 33 7
18 24 24 24 7z m-1635 -70 c3 -11 3 -29 0 -41 -5 -16 -14 -20 -43 -17 -30 2
-38 7 -40 26 -5 34 35 75 59 62 10 -6 21 -19 24 -30z m-6185 5 c7 -8 23 -15
35 -15 26 0 38 -13 52 -55 5 -16 15 -31 21 -31 7 -1 22 -2 35 -3 12 -1 30 -14
42 -30 10 -16 23 -27 29 -24 5 4 6 1 1 -6 -4 -8 2 -21 15 -33 12 -11 19 -23
16 -26 -4 -3 -21 9 -39 26 -18 18 -43 32 -55 32 -12 0 -22 5 -22 11 0 7 -18 9
-52 6 -71 -6 -92 -15 -77 -33 12 -15 8 -195 -6 -226 -10 -24 -69 -24 -93 0
-38 38 -60 86 -55 120 6 35 14 39 37 17 16 -16 52 -20 60 -7 10 16 -6 53 -20
48 -23 -9 -16 8 8 19 34 16 44 40 29 68 -11 20 -11 29 0 48 6 13 11 43 10 66
-1 45 8 54 29 28z m3830 -9 c0 -14 -8 -31 -18 -38 -9 -7 -36 -38 -58 -68 -23
-30 -56 -70 -73 -89 -17 -19 -31 -41 -31 -48 0 -7 -7 -13 -15 -13 -8 0 -15 -4
-15 -8 0 -16 -37 -51 -64 -62 -16 -6 -126 -10 -269 -10 -133 0 -293 -5 -356
-11 -76 -7 -117 -7 -124 0 -9 9 24 159 41 186 11 16 32 79 32 95 1 15 44 70
55 70 3 0 13 -8 24 -17 128 -121 168 -147 247 -158 40 -5 53 -3 63 9 8 9 25
16 40 16 15 0 31 4 37 9 12 11 186 71 207 71 9 0 31 9 49 20 18 11 44 20 58
21 14 0 52 11 85 23 78 31 85 31 85 2z m2039 2 c12 -23 19 -34 59 -98 12 -19
22 -48 22 -63 0 -36 39 -92 182 -260 53 -62 143 -131 159 -121 8 4 9 3 5 -4
-4 -7 14 -22 48 -39 57 -28 69 -46 40 -57 -27 -10 -56 4 -119 59 -33 28 -70
57 -83 64 -12 7 -20 16 -17 22 4 5 -1 9 -9 9 -9 0 -16 6 -16 14 0 13 -27 31
-42 28 -5 -1 -8 9 -8 22 0 36 -38 42 -67 10 -13 -14 -23 -21 -23 -16 0 4 9 18
21 30 27 30 18 55 -38 110 -27 26 -43 49 -39 57 3 8 3 22 0 30 -7 18 -34 20
-35 3 0 -10 -2 -10 -6 0 -2 6 -11 12 -19 12 -9 0 -13 4 -10 9 4 5 0 12 -6 14
-10 4 -9 8 2 16 8 6 18 12 22 13 4 2 4 17 -1 33 -5 17 -10 25 -10 20 -1 -6
-11 -16 -23 -24 -13 -7 -20 -10 -15 -6 4 5 0 17 -10 27 -15 17 -15 20 3 53 17
31 17 37 4 45 -13 8 -13 10 1 10 9 0 21 -10 28 -22z m656 -10 c14 -6 26 -14
26 -17 9 -47 6 -62 -18 -81 -35 -27 -69 -26 -88 4 -17 26 -11 49 23 89 18 20
23 21 57 5z m-6820 -27 c3 -5 1 -12 -5 -16 -5 -3 -10 1 -10 9 0 18 6 21 15 7z
m1599 -53 c20 -28 20 -67 1 -95 -12 -17 -21 -19 -47 -14 -29 6 -33 11 -36 42
-2 24 4 44 18 62 26 33 44 34 64 5z m4983 -30 c45 -42 22 -92 -39 -86 -45 4
-68 47 -44 84 20 30 52 31 83 2z m-4613 -23 c23 -35 20 -52 -16 -86 -39 -35
-60 -37 -88 -7 -27 29 -25 50 6 87 33 39 75 42 98 6z m-5088 -100 c-18 -27
-42 -24 -51 6 -5 13 1 26 17 38 22 18 23 18 36 0 12 -17 11 -23 -2 -44z m4804
20 c0 -8 7 -15 15 -15 16 0 35 -30 35 -55 0 -8 -16 -23 -35 -32 -30 -14 -38
-15 -60 -3 -46 25 -44 79 3 105 35 18 42 18 42 0z m6365 -39 c50 -23 135 -89
135 -106 0 -5 -9 -12 -20 -15 -27 -9 -25 -19 6 -33 15 -7 22 -17 18 -24 -4 -6
-3 -8 3 -5 6 4 18 -2 28 -13 13 -15 16 -28 11 -57 -5 -27 -4 -34 3 -23 8 11
11 3 11 -34 0 -39 -3 -46 -13 -37 -8 6 -17 8 -20 4 -4 -3 -7 -1 -7 5 0 7 7 12
16 12 26 0 9 25 -22 31 -16 4 -25 7 -20 8 5 0 3 8 -4 16 -10 12 -10 19 -2 27
16 16 15 28 -3 28 -8 0 -15 5 -15 11 0 6 -9 8 -20 4 -11 -4 -20 -2 -20 4 0 6
7 11 15 11 8 0 15 5 15 10 0 15 -16 12 -30 -5 -10 -12 -9 -20 6 -42 10 -16 19
-38 19 -50 1 -19 -5 -23 -27 -23 -15 0 -28 -4 -28 -10 0 -5 7 -10 15 -10 8 0
15 -7 15 -15 0 -11 12 -15 48 -16 26 -1 50 -1 55 0 10 1 9 -7 -4 -30 -5 -11
-15 -16 -21 -13 -6 4 -8 3 -5 -3 4 -6 -1 -17 -10 -24 -15 -12 -16 -12 -10 5 6
16 5 17 -7 7 -8 -7 -12 -19 -9 -27 7 -19 -9 -18 -38 4 -13 10 -37 26 -52 36
l-28 17 5 -68 5 -69 -58 -23 c-39 -15 -67 -21 -82 -16 -47 14 -89 37 -83 46 5
9 -15 13 -50 9 -11 -1 -16 3 -11 9 3 7 3 25 0 42 -6 28 -8 29 -20 12 -11 -15
-12 -11 -8 32 l6 49 -46 -38 c-26 -21 -47 -42 -47 -47 0 -19 -31 -8 -66 24
l-37 32 7 -30 c20 -82 20 -82 3 -60 l-16 20 -1 -20 c-1 -14 -5 -11 -15 14 -15
33 -21 181 -9 181 4 0 12 -7 19 -16 10 -14 13 -5 18 54 9 87 15 104 36 98 9
-3 27 4 41 15 l25 20 -33 -4 -33 -4 38 38 c25 25 68 51 123 74 80 32 90 34
168 29 57 -3 101 -13 137 -28z m-1735 -102 c0 -8 -5 -12 -10 -9 -6 4 -8 11 -5
16 9 14 15 11 15 -7z m940 -14 c0 -5 -4 -10 -10 -10 -5 0 -10 5 -10 10 0 6 5
10 10 10 6 0 10 -4 10 -10z m900 -110 c8 -5 11 -10 5 -10 -5 0 -17 5 -25 10
-8 5 -10 10 -5 10 6 0 17 -5 25 -10z m-3047 -55 c7 -18 -9 -29 -30 -21 -12 5
-13 9 -3 21 16 19 26 19 33 0z m117 -5 c0 -5 -5 -10 -11 -10 -5 0 -7 5 -4 10
3 6 8 10 11 10 2 0 4 -4 4 -10z m336 3 c-7 -7 -87 -5 -95 3 -2 2 20 4 49 4 29
0 50 -3 46 -7z m-5636 -7 c0 -3 -4 -8 -10 -11 -5 -3 -10 -1 -10 4 0 6 5 11 10
11 6 0 10 -2 10 -4z m4890 -17 c0 -5 -9 -9 -20 -9 -22 0 -27 16 -7 23 15 5 27
-1 27 -14z m-110 1 c0 -5 -4 -10 -10 -10 -5 0 -10 5 -10 10 0 6 5 10 10 10 6
0 10 -4 10 -10z m147 -6 c-3 -3 -12 -4 -19 -1 -8 3 -5 6 6 6 11 1 17 -2 13 -5z
m-5137 -34 c0 -5 -2 -10 -4 -10 -3 0 -8 5 -11 10 -3 6 -1 10 4 10 6 0 11 -4
11 -10z m8545 -26 c-9 -9 -18 -14 -21 -11 -3 3 3 14 13 24 10 10 19 15 21 11
2 -4 -4 -15 -13 -24z m-5868 1 c1 -14 0 -15 -3 -3 -3 9 -15 19 -27 22 -18 4
-18 4 3 3 17 -1 25 -8 27 -22z m753 10 c-15 -19 -21 -19 -46 0 -18 13 -16 14
20 15 33 0 37 -2 26 -15z m-585 -5 c3 -5 1 -10 -4 -10 -6 0 -11 5 -11 10 0 6
2 10 4 10 3 0 8 -4 11 -10z m295 0 c-14 -4 -36 -8 -50 -8 l-25 0 25 8 c14 4
36 8 50 8 l25 0 -25 -8z m4511 0 c34 -19 23 -52 -29 -85 -26 -16 -53 -37 -60
-47 -7 -10 -18 -18 -23 -18 -5 0 -20 -9 -31 -20 -12 -11 -29 -18 -39 -15 -21
7 -66 -13 -73 -31 -7 -19 -3 -18 24 6 24 21 56 28 45 10 -4 -6 -24 -19 -46
-30 -33 -17 -39 -18 -39 -5 0 12 -9 9 -41 -12 -27 -18 -55 -28 -80 -28 -20 0
-35 -3 -32 -7 2 -5 -8 -8 -24 -8 -32 1 -68 -4 -100 -14 -13 -4 -23 -5 -23 -2
0 3 65 26 145 51 137 44 180 62 118 50 -20 -4 -15 1 15 15 24 11 52 26 63 33
19 14 19 14 -2 41 -25 32 -39 33 -39 3 0 -32 -36 -63 -106 -91 -86 -34 -183
-75 -230 -97 -23 -10 -50 -19 -60 -18 -13 0 -9 5 14 15 35 15 44 29 12 21 -19
-5 -19 -5 0 34 23 44 24 49 10 49 -5 0 -10 -6 -10 -12 0 -7 -13 -27 -30 -45
-19 -20 -25 -33 -17 -36 6 -2 -3 -4 -20 -4 -33 0 -46 20 -20 30 7 2 26 31 42
63 16 33 32 61 36 64 13 11 29 50 20 50 -5 0 -13 -9 -16 -21 -4 -11 -9 -19
-11 -16 -2 2 2 20 10 39 15 35 11 83 -5 72 -5 -3 -9 0 -9 7 0 7 12 9 38 5 45
-8 230 -6 402 4 192 11 200 11 221 0z m-4594 -6 c-3 -3 -12 -4 -19 -1 -8 3 -5
6 6 6 11 1 17 -2 13 -5z m-534 -11 c-7 -2 -19 -2 -25 0 -7 3 -2 5 12 5 14 0
19 -2 13 -5z m315 -38 c-3 -3 -9 2 -12 12 -6 14 -5 15 5 6 7 -7 10 -15 7 -18z
m2342 15 c0 -5 -4 -10 -10 -10 -5 0 -10 5 -10 10 0 6 5 10 10 10 6 0 10 -4 10
-10z m137 -1 c-14 -8 -22 -8 -30 0 -8 8 -3 11 19 11 25 -1 27 -2 11 -11z
m-767 -19 c0 -5 -12 -10 -26 -10 -14 0 -23 4 -19 10 3 6 15 10 26 10 10 0 19
-4 19 -10z m-4560 -10 c0 -5 -4 -10 -10 -10 -5 0 -10 5 -10 10 0 6 5 10 10 10
6 0 10 -4 10 -10z m4540 -84 c0 -11 -19 -15 -25 -6 -3 5 1 10 9 10 9 0 16 -2
16 -4z m3560 -16 c8 -5 11 -10 5 -10 -5 0 -17 5 -25 10 -8 5 -10 10 -5 10 6 0
17 -5 25 -10z m-7565 -40 c3 -5 1 -10 -4 -10 -6 0 -11 5 -11 10 0 6 2 10 4 10
3 0 8 -4 11 -10z m885 -20 c0 -5 -4 -10 -9 -10 -6 0 -13 5 -16 10 -3 6 1 10 9
10 9 0 16 -4 16 -10z m3774 1 c4 -5 -3 -7 -14 -4 -23 6 -26 13 -6 13 8 0 17
-4 20 -9z m-842 -73 c-7 -7 -12 -8 -12 -2 0 14 12 26 19 19 2 -3 -1 -11 -7
-17z m140 -30 c-7 -7 -12 -8 -12 -2 0 14 12 26 19 19 2 -3 -1 -11 -7 -17z
m-1617 -8 c3 -5 1 -10 -4 -10 -6 0 -11 5 -11 10 0 6 2 10 4 10 3 0 8 -4 11
-10z m1495 0 c0 -5 -4 -10 -9 -10 -6 0 -13 5 -16 10 -3 6 1 10 9 10 9 0 16 -4
16 -10z m840 -10 c0 -5 -2 -10 -4 -10 -3 0 -8 5 -11 10 -3 6 -1 10 4 10 6 0
11 -4 11 -10z m-703 -22 c-3 -8 -6 -5 -6 6 -1 11 2 17 5 13 3 -3 4 -12 1 -19z
m1603 18 c0 -3 -4 -8 -10 -11 -5 -3 -10 -1 -10 4 0 6 5 11 10 11 6 0 10 -2 10
-4z m-1045 -35 c-6 -5 -25 10 -25 20 0 5 6 4 14 -3 8 -7 12 -15 11 -17z m-35
-1 c0 -5 -2 -10 -4 -10 -3 0 -8 5 -11 10 -3 6 -1 10 4 10 6 0 11 -4 11 -10z
m-2270 -20 c0 -5 -5 -10 -11 -10 -5 0 -7 5 -4 10 3 6 8 10 11 10 2 0 4 -4 4
-10z m-1070 -10 c0 -5 -5 -10 -11 -10 -5 0 -7 5 -4 10 3 6 8 10 11 10 2 0 4
-4 4 -10z m2804 -11 c-3 -5 -10 -7 -15 -3 -5 3 -7 10 -3 15 3 5 10 7 15 3 5
-3 7 -10 3 -15z m896 5 c0 -8 -5 -12 -10 -9 -6 4 -8 11 -5 16 9 14 15 11 15
-7z m-83 0 c-3 -3 -12 -4 -19 -1 -8 3 -5 6 6 6 11 1 17 -2 13 -5z m-4397 -24
c0 -5 -4 -10 -10 -10 -5 0 -10 5 -10 10 0 6 5 10 10 10 6 0 10 -4 10 -10z
m810 -10 c0 -5 -4 -10 -10 -10 -5 0 -10 5 -10 10 0 6 5 10 10 10 6 0 10 -4 10
-10z m2360 0 c0 -5 -4 -10 -10 -10 -5 0 -10 5 -10 10 0 6 5 10 10 10 6 0 10
-4 10 -10z m-2300 -40 c0 -5 -7 -7 -15 -4 -8 4 -12 10 -9 15 6 11 24 2 24 -11z
m-100 -10 c0 -5 -7 -10 -16 -10 -8 0 -12 5 -9 10 3 6 10 10 16 10 5 0 9 -4 9
-10z m2510 -10 c0 -5 -4 -10 -10 -10 -5 0 -10 5 -10 10 0 6 5 10 10 10 6 0 10
-4 10 -10z m300 0 c0 -5 -7 -10 -15 -10 -8 0 -15 5 -15 10 0 6 7 10 15 10 8 0
15 -4 15 -10z m-3455 -10 c3 -5 1 -10 -4 -10 -6 0 -11 5 -11 10 0 6 2 10 4 10
3 0 8 -4 11 -10z m805 -5 c11 -13 10 -14 -4 -9 -9 3 -16 10 -16 15 0 13 6 11
20 -6z m1890 -10 c0 -8 -4 -15 -10 -15 -5 0 -10 7 -10 15 0 8 5 15 10 15 6 0
10 -7 10 -15z m350 -15 c0 -5 -4 -10 -10 -10 -5 0 -10 5 -10 10 0 6 5 10 10
10 6 0 10 -4 10 -10z m-2060 -24 c0 -3 -4 -8 -10 -11 -5 -3 -10 -1 -10 4 0 6
5 11 10 11 6 0 10 -2 10 -4z m1820 -10 c0 -2 -9 -6 -20 -9 -11 -3 -20 -1 -20
4 0 5 9 9 20 9 11 0 20 -2 20 -4z m-2810 -36 c0 -5 -4 -10 -9 -10 -6 0 -13 5
-16 10 -3 6 1 10 9 10 9 0 16 -4 16 -10z m2830 0 c0 -5 -4 -10 -10 -10 -5 0
-10 5 -10 10 0 6 5 10 10 10 6 0 10 -4 10 -10z m-1710 -40 c0 -5 -4 -10 -10
-10 -5 0 -10 5 -10 10 0 6 5 10 10 10 6 0 10 -4 10 -10z m1481 -33 c-6 -8 -8
-17 -4 -20 3 -4 1 -7 -5 -7 -7 0 -12 2 -12 4 0 2 -3 11 -6 20 -4 12 0 16 16
16 18 0 20 -3 11 -13z m221 -22 c0 -5 -5 -11 -11 -13 -6 -2 -11 4 -11 13 0 9
5 15 11 13 6 -2 11 -8 11 -13z m235 -21 c2 -5 -6 -10 -17 -10 -20 0 -25 7 -13
20 9 8 26 3 30 -10z m-1947 -14 c0 -5 -4 -10 -10 -10 -5 0 -10 5 -10 10 0 6 5
10 10 10 6 0 10 -4 10 -10z m1987 -56 c3 -9 -17 -11 -47 -5 -3 1 2 6 10 11 17
11 32 8 37 -6z m633 -21 c0 -15 -2 -16 -10 -3 -9 13 -11 13 -20 0 -8 -13 -10
-12 -10 3 0 10 8 17 20 17 12 0 20 -7 20 -17z m-1570 -53 c0 -5 -4 -10 -10
-10 -5 0 -10 5 -10 10 0 6 5 10 10 10 6 0 10 -4 10 -10z"/>
<path d="M8065 6621 c-16 -8 -9 -10 30 -11 93 -1 233 -48 218 -72 -3 -7 -1 -8
5 -4 6 4 21 2 32 -4 39 -21 19 0 -25 26 -25 14 -45 29 -45 32 0 26 -173 52
-215 33z"/>
<path d="M8103 6583 c15 -2 39 -2 55 0 15 2 2 4 -28 4 -30 0 -43 -2 -27 -4z"/>
<path d="M8063 6533 c9 -2 23 -2 30 0 6 3 -1 5 -18 5 -16 0 -22 -2 -12 -5z"/>
<path d="M8406 6497 c2 -7 14 -19 27 -26 21 -13 21 -12 -2 13 -27 29 -33 32
-25 13z"/>
<path d="M7750 6620 c0 -5 7 -10 15 -10 8 0 15 5 15 10 0 6 -7 10 -15 10 -8 0
-15 -4 -15 -10z"/>
<path d="M7925 6290 c-8 -13 5 -13 25 0 13 8 13 10 -2 10 -9 0 -20 -4 -23 -10z"/>
<path d="M7216 5887 c3 -10 9 -15 12 -12 3 3 0 11 -7 18 -10 9 -11 8 -5 -6z"/>
<path d="M7716 5705 c4 -8 15 -15 27 -15 23 0 22 2 -10 19 -19 10 -22 9 -17
-4z"/>
<path d="M7790 5700 c13 -11 26 -17 29 -14 7 6 -28 34 -42 34 -6 0 0 -9 13
-20z"/>
<path d="M7886 5676 c7 -18 74 -71 74 -58 0 5 -18 23 -40 41 -22 17 -37 25
-34 17z"/>
<path d="M7880 5630 c0 -5 5 -10 11 -10 5 0 7 5 4 10 -3 6 -8 10 -11 10 -2 0
-4 -4 -4 -10z"/>
<path d="M7825 5580 c-3 -5 -2 -11 3 -14 11 -7 95 -36 105 -36 16 0 -4 19 -36
35 -41 21 -65 26 -72 15z"/>
<path d="M7740 5426 c0 -2 7 -7 16 -10 8 -3 12 -2 9 4 -6 10 -25 14 -25 6z"/>
<path d="M7990 5290 c8 -5 22 -10 30 -10 13 0 13 1 0 10 -8 5 -22 10 -30 10
-13 0 -13 -1 0 -10z"/>
<path d="M7272 5050 c0 -14 2 -19 5 -12 2 6 2 18 0 25 -3 6 -5 1 -5 -13z"/>
<path d="M7260 4989 c0 -11 5 -17 10 -14 6 3 10 13 10 21 0 8 -4 14 -10 14 -5
0 -10 -9 -10 -21z"/>
<path d="M7959 4935 c42 -19 52 -19 27 0 -11 8 -29 15 -40 15 -16 -1 -12 -5
13 -15z"/>
<path d="M7640 4859 c0 -5 5 -7 10 -4 6 3 10 8 10 11 0 2 -4 4 -10 4 -5 0 -10
-5 -10 -11z"/>
<path d="M7670 4846 c0 -2 7 -7 16 -10 8 -3 12 -2 9 4 -6 10 -25 14 -25 6z"/>
<path d="M7960 4817 c0 -8 11 -19 25 -25 40 -18 43 -14 11 13 -34 29 -36 30
-36 12z"/>
<path d="M7119 4798 c-1 -13 -1 -26 0 -30 0 -5 -2 -8 -6 -8 -5 0 -9 -24 -10
-53 -1 -48 -1 -49 6 -14 5 21 13 43 20 50 14 14 15 77 1 77 -5 0 -11 -10 -11
-22z"/>
<path d="M7705 4810 c3 -5 13 -10 21 -10 8 0 12 5 9 10 -3 6 -13 10 -21 10 -8
0 -12 -4 -9 -10z"/>
<path d="M7750 4776 c0 -2 9 -6 20 -9 11 -3 18 -1 14 4 -5 9 -34 13 -34 5z"/>
<path d="M7575 4750 c-18 -8 -17 -9 8 -9 16 -1 26 3 22 9 -3 6 -7 10 -8 9 -1
0 -11 -4 -22 -9z"/>
<path d="M7675 4750 c-39 -8 -39 -8 12 -6 28 0 49 4 46 8 -2 5 -7 7 -11 7 -4
-1 -25 -5 -47 -9z"/>
<path d="M7960 4740 c0 -10 108 -25 117 -16 4 3 -7 6 -23 6 -16 0 -44 4 -62 9
-17 5 -32 6 -32 1z"/>
<path d="M7775 4710 c3 -5 8 -10 11 -10 2 0 4 5 4 10 0 6 -5 10 -11 10 -5 0
-7 -4 -4 -10z"/>
<path d="M7221 4643 c-1 -6 -4 -20 -7 -30 -5 -17 -5 -17 6 0 6 10 9 23 6 30
-3 9 -5 9 -5 0z"/>
<path d="M7446 4616 c-11 -40 -7 -56 14 -56 17 0 20 7 20 38 0 43 -24 55 -34
18z"/>
<path d="M8000 4619 c7 -11 14 -19 16 -16 7 7 -7 37 -17 37 -6 0 -5 -9 1 -21z"/>
<path d="M7518 4614 c-3 -3 -2 -22 4 -42 6 -21 7 -65 3 -106 -4 -39 -7 -79 -7
-88 0 -10 -3 -18 -9 -18 -5 0 -9 -7 -9 -15 0 -8 5 -15 10 -15 6 0 10 -10 10
-22 1 -28 28 -129 29 -107 1 9 8 22 16 29 12 10 18 9 31 -5 23 -23 50 -15 46
14 -2 13 1 27 7 30 6 4 13 23 15 42 2 19 5 39 5 44 1 6 13 -10 26 -35 36 -67
44 -86 49 -117 2 -15 5 -30 5 -33 1 -3 5 1 10 8 6 11 11 10 25 -3 9 -10 19
-15 21 -13 7 7 -26 49 -35 43 -4 -3 -10 5 -13 16 -4 16 -2 20 11 17 15 -4 17
4 16 56 0 34 -6 72 -13 85 -8 14 -9 21 -2 17 6 -4 11 -2 11 3 0 6 -6 11 -13
11 -8 0 -22 9 -32 20 -10 11 -23 20 -29 19 -6 0 -6 -3 2 -6 20 -8 14 -43 -8
-43 -13 0 -20 7 -20 20 0 11 -7 20 -15 20 -9 0 -31 16 -51 35 -41 41 -51 43
-57 13 -2 -13 -5 -2 -6 25 -1 41 2 47 19 47 25 0 28 45 4 54 -20 8 -49 8 -56
0z m132 -244 c0 -5 -2 -10 -4 -10 -3 0 -8 5 -11 10 -3 6 -1 10 4 10 6 0 11 -4
11 -10z"/>
<path d="M7718 4483 c7 -3 16 -2 19 1 4 3 -2 6 -13 5 -11 0 -14 -3 -6 -6z"/>
<path d="M7830 4415 c1 -26 26 -59 39 -50 6 3 11 -1 11 -9 0 -9 5 -16 10 -16
13 0 13 3 -1 34 -7 14 -15 23 -20 21 -4 -3 -15 5 -23 17 -15 21 -16 21 -16 3z"/>
<path d="M7819 4356 c14 -14 27 -26 29 -26 10 0 -26 44 -39 48 -8 3 -3 -7 10
-22z"/>
<path d="M7840 4260 c0 -5 11 -12 25 -16 26 -6 34 -23 13 -25 -7 -1 -2 -4 12
-8 17 -5 25 -15 27 -31 0 -14 1 -30 2 -35 1 -13 56 -47 63 -39 11 10 -42 120
-67 142 -26 22 -75 30 -75 12z"/>
<path d="M7596 4147 c3 -8 15 -18 27 -21 42 -11 33 15 -10 29 -18 5 -22 3 -17
-8z"/>
<path d="M7760 4119 c0 -11 4 -18 10 -14 5 3 7 12 3 20 -7 21 -13 19 -13 -6z"/>
<path d="M7384 4082 c3 -5 31 -14 63 -22 32 -7 60 -16 63 -21 3 -4 36 -11 74
-15 42 -4 84 -16 110 -30 22 -13 62 -35 87 -48 26 -14 60 -41 76 -61 21 -25
35 -34 46 -29 29 11 19 27 -46 75 -84 63 -173 106 -265 129 -89 21 -216 35
-208 22z"/>
<path d="M7339 4056 c-29 -21 -42 -55 -27 -74 25 -31 71 -72 81 -72 5 0 7 -7
4 -15 -5 -11 3 -14 38 -13 43 0 55 18 14 18 -22 0 -49 22 -49 39 0 6 7 11 15
11 13 0 13 3 -2 18 -10 11 -27 23 -38 27 -19 8 -18 9 5 13 17 3 31 -4 47 -22
21 -25 43 -34 43 -18 0 4 -5 13 -12 20 -9 9 -9 12 0 12 22 0 12 18 -15 29 -16
6 -42 17 -59 24 -23 11 -34 12 -45 3z"/>
<path d="M7553 4003 c9 -9 20 -13 24 -9 4 4 1 11 -7 16 -25 16 -35 11 -17 -7z"/>
<path d="M7987 3954 c-4 -4 -7 -14 -7 -23 0 -11 3 -12 11 -4 6 6 10 16 7 23
-2 6 -7 8 -11 4z"/>
<path d="M7444 3941 c4 -6 13 -11 21 -11 7 0 15 -6 18 -12 2 -7 7 -11 10 -8
10 9 -7 27 -32 35 -16 5 -21 4 -17 -4z"/>
<path d="M7328 3883 c6 -2 18 -2 25 0 6 3 1 5 -13 5 -14 0 -19 -2 -12 -5z"/>
<path d="M7130 3865 l-35 -13 38 -1 c27 -1 37 3 37 14 0 8 -1 15 -2 14 -2 0
-19 -7 -38 -14z"/>
<path d="M7580 3811 c0 -6 -12 -14 -27 -18 -25 -7 -23 -8 22 -14 28 -3 54 -2
60 2 5 5 0 9 -13 9 -12 0 -21 5 -19 11 1 6 -4 14 -10 16 -7 3 -13 0 -13 -6z"/>
<path d="M7150 3790 c0 -5 5 -10 11 -10 5 0 7 5 4 10 -3 6 -8 10 -11 10 -2 0
-4 -4 -4 -10z"/>
<path d="M7270 3780 c0 -9 7 -26 16 -38 9 -13 11 -22 4 -22 -11 0 -34 -50 -26
-58 3 -2 11 7 17 22 15 31 29 34 29 5 0 -11 10 -53 22 -92 22 -75 56 -117 92
-117 32 0 189 51 208 68 10 8 26 12 36 10 11 -3 19 0 19 8 0 8 -7 14 -14 14
-8 0 -11 5 -7 11 5 9 -6 9 -42 3 -89 -15 -119 -11 -171 26 -26 19 -53 41 -59
49 -7 9 -20 12 -33 8 -13 -3 -21 -3 -18 -1 3 3 -6 17 -20 32 -14 15 -32 41
-39 57 -7 17 -13 23 -14 15z"/>
<path d="M7525 3745 c-23 -7 -39 -18 -37 -26 2 -7 7 -35 13 -63 5 -27 11 -51
13 -54 3 -2 23 -1 46 3 l41 7 -1 46 c-1 26 -1 52 -1 58 1 6 22 14 49 18 26 3
54 11 62 16 23 15 -137 11 -185 -5z"/>
<path d="M7670 3620 c-12 -8 -10 -9 10 -9 14 1 39 5 55 9 29 7 29 8 -10 9 -22
0 -47 -4 -55 -9z"/>
<path d="M7625 3450 c-18 -19 -17 -20 2 -20 11 0 35 -3 53 -7 24 -4 31 -3 26
5 -4 7 -19 12 -33 12 -18 0 -24 4 -19 15 8 21 -8 19 -29 -5z"/>
<path d="M7533 3379 c-10 -26 -9 -34 4 -48 9 -9 24 -17 32 -18 9 -2 30 -6 48
-9 22 -4 46 0 75 14 24 11 50 22 58 25 10 3 6 8 -13 16 -41 16 -53 14 -65 -14
-14 -31 -37 -24 -59 19 -28 56 -63 62 -80 15z"/>
<path d="M7637 3384 c3 -7 9 -14 14 -14 14 0 10 17 -5 23 -10 4 -13 1 -9 -9z"/>
<path d="M7774 3290 c-36 -14 -42 -34 -8 -26 16 4 33 11 37 16 13 12 -6 19
-29 10z"/>
<path d="M7340 3282 c8 -5 39 -12 69 -14 35 -4 48 -2 37 4 -22 12 -126 22
-106 10z"/>
<path d="M7825 3230 c-3 -5 1 -10 9 -10 9 0 16 5 16 10 0 6 -4 10 -9 10 -6 0
-13 -4 -16 -10z"/>
<path d="M7353 3203 c-45 -6 -42 -23 5 -23 49 0 132 -22 132 -35 0 -5 -8 -10
-19 -11 -11 -1 -28 -5 -38 -9 -34 -13 27 -27 92 -20 65 7 145 -9 226 -44 34
-15 54 -18 87 -11 57 10 65 20 16 20 -29 0 -35 3 -24 10 8 5 23 10 32 10 38 0
67 18 61 39 -4 16 -9 18 -30 10 -30 -11 -36 -11 -29 0 3 4 -18 4 -46 -1 -29
-5 -63 -7 -77 -4 -14 4 -48 8 -76 10 -27 2 -84 15 -125 29 -83 27 -139 36
-187 30z m337 -93 c0 -12 -8 -12 -35 0 -18 8 -17 9 8 9 15 1 27 -3 27 -9z"/>
<path d="M7382 3088 c-20 -20 -14 -28 23 -28 19 0 35 4 35 9 0 5 10 12 23 14
16 3 14 5 -10 6 -17 0 -37 3 -45 6 -7 3 -19 0 -26 -7z"/>
<path d="M8195 3066 c2 -22 9 -44 15 -50 7 -7 8 -2 1 19 -5 17 -12 39 -15 50
-3 11 -3 2 -1 -19z"/>
<path d="M7948 3069 c-47 -27 -179 -52 -298 -56 -69 -3 -136 -5 -150 -6 -14 0
-45 1 -69 4 -53 5 -65 -13 -21 -31 18 -8 30 -20 30 -31 0 -11 5 -19 10 -19 6
0 10 4 10 10 0 5 24 0 53 -11 70 -29 149 -27 222 4 l57 24 -84 -4 c-80 -4 -82
-3 -55 12 15 9 60 22 100 30 40 8 81 17 92 20 15 5 13 1 -7 -15 -33 -26 -36
-40 -7 -40 24 0 56 21 118 79 41 38 40 54 -1 30z"/>
<path d="M8333 3055 c2 -5 10 -10 17 -10 7 0 15 5 17 10 2 6 -6 11 -17 11 -11
0 -19 -5 -17 -11z"/>
<path d="M7987 3019 c-38 -44 -28 -46 12 -4 18 19 29 35 24 35 -5 0 -21 -14
-36 -31z"/>
<path d="M8019 2987 c-30 -18 -60 -32 -66 -30 -11 4 -53 -68 -53 -92 0 -8 5
-15 11 -15 16 0 79 66 79 82 0 8 20 29 45 47 39 28 52 41 42 41 -2 0 -28 -15
-58 -33z"/>
<path d="M7895 2956 c-11 -6 -24 -16 -30 -23 -18 -21 -61 -32 -155 -39 -89 -7
-123 -20 -81 -31 12 -3 21 -9 21 -13 0 -12 44 -20 50 -9 5 6 16 6 34 -1 53
-20 140 24 179 89 19 33 12 44 -18 27z"/>
<path d="M2356 5118 c-9 -12 -16 -26 -16 -30 0 -5 56 -8 124 -8 120 0 124 1
140 25 9 13 16 27 16 30 0 3 -56 5 -124 5 -118 0 -126 -1 -140 -22z"/>
<path d="M2599 5017 l-76 -122 -86 -3 c-48 -1 -87 1 -87 5 0 4 9 19 19 32 16
21 26 25 69 22 45 -2 52 0 71 27 11 17 21 33 21 36 0 3 -53 6 -119 6 -115 0
-119 -1 -135 -25 -21 -32 -20 -45 4 -45 26 0 25 -7 -10 -60 -16 -25 -30 -48
-30 -52 0 -5 71 -8 158 -8 l157 0 60 95 c33 52 62 95 65 95 6 0 40 -54 40 -64
0 -3 -8 -6 -18 -6 -10 0 -26 -13 -35 -30 l-18 -30 60 0 c56 0 61 -2 78 -30 14
-25 24 -30 54 -30 l37 0 -96 155 c-53 85 -99 155 -102 155 -3 0 -39 -55 -81
-123z"/>
<path d="M2242 4791 c-8 -5 -12 -21 -10 -37 2 -23 9 -30 30 -32 30 -4 45 -30
23 -38 -9 -4 -22 -1 -30 6 -18 15 -30 7 -22 -15 8 -19 61 -20 77 0 7 8 10 25
6 40 -5 20 -13 25 -36 25 -21 0 -30 5 -30 16 0 13 7 15 35 11 32 -5 34 -4 25
14 -11 20 -45 25 -68 10z"/>
<path d="M2350 4730 c0 -40 4 -70 10 -70 6 0 10 11 10 25 0 19 5 25 23 25 44
0 62 43 31 74 -8 9 -29 16 -45 16 l-29 0 0 -70z m60 20 c0 -13 -7 -20 -20 -20
-13 0 -20 7 -20 20 0 13 7 20 20 20 13 0 20 -7 20 -20z"/>
<path d="M2471 4786 c-17 -21 -10 -107 10 -119 9 -5 28 -7 42 -3 25 6 27 10
27 65 0 44 -4 60 -16 65 -26 10 -51 7 -63 -8z m59 -56 c0 -27 -5 -43 -15 -47
-20 -7 -26 -1 -30 33 -4 38 4 54 26 54 16 0 19 -7 19 -40z"/>
<path d="M2580 4729 c0 -52 3 -70 13 -66 6 2 12 13 12 25 0 32 18 31 33 -1 14
-28 32 -36 32 -14 0 7 -5 18 -12 25 -9 9 -9 15 0 24 7 7 12 21 12 33 0 30 -19
45 -57 45 l-33 0 0 -71z m65 26 c0 -5 -10 -11 -22 -13 -16 -2 -23 2 -23 13 0
11 7 15 23 13 12 -2 22 -7 22 -13z"/>
<path d="M2685 4789 c-4 -6 2 -13 14 -16 18 -5 21 -13 21 -59 0 -30 5 -54 10
-54 6 0 10 24 10 54 0 46 3 54 21 59 33 9 12 27 -31 27 -21 0 -42 -5 -45 -11z"/>
<path d="M2804 4786 c-12 -32 0 -61 29 -64 19 -2 27 -9 27 -23 0 -21 -35 -27
-43 -6 -2 6 -8 9 -12 5 -18 -17 5 -39 37 -36 30 3 33 6 36 41 3 35 2 37 -27
37 -22 0 -31 5 -31 16 0 13 7 15 30 11 22 -5 30 -3 30 7 0 26 -67 37 -76 12z"/>
<path d="M5870 3789 c0 -5 5 -7 10 -4 6 3 10 8 10 11 0 2 -4 4 -10 4 -5 0 -10
-5 -10 -11z"/>
<path d="M5565 3720 c-3 -5 -2 -10 4 -10 5 0 13 5 16 10 3 6 2 10 -4 10 -5 0
-13 -4 -16 -10z"/>
<path d="M9320 2180 c-9 -6 -10 -10 -3 -10 6 0 15 5 18 10 8 12 4 12 -15 0z"/>
<path d="M9155 2240 c-34 -16 -35 -18 -11 -13 36 7 87 33 66 33 -8 0 -33 -9
-55 -20z"/>
<path d="M3778 1883 c7 -3 16 -2 19 1 4 3 -2 6 -13 5 -11 0 -14 -3 -6 -6z"/>
<path d="M11343 1615 c0 -22 2 -30 4 -17 2 12 2 30 0 40 -3 9 -5 -1 -4 -23z"/>
<path d="M11364 1619 c3 -13 5 -49 6 -79 1 -30 4 -48 8 -40 8 17 26 24 60 21
13 0 42 10 64 23 l41 24 -39 11 c-21 6 -53 11 -71 11 -22 0 -38 8 -52 27 l-21
26 4 -24z"/>
<path d="M11216 1564 c-24 -23 -19 -38 15 -51 29 -11 31 -15 25 -47 -6 -30 -3
-37 18 -51 29 -19 49 -12 41 14 -3 11 5 28 20 45 23 25 33 56 18 56 -4 0 -17
-10 -30 -22 l-23 -21 0 46 c0 47 0 47 -34 47 -19 0 -42 -7 -50 -16z"/>
<path d="M11165 1550 c-3 -5 1 -10 9 -10 8 0 18 5 21 10 3 6 -1 10 -9 10 -8 0
-18 -4 -21 -10z"/>
<path d="M11610 1491 c0 -5 5 -13 10 -16 6 -3 10 -2 10 4 0 5 -4 13 -10 16 -5
3 -10 2 -10 -4z"/>
<path d="M11433 1478 c-33 -53 -35 -62 -11 -81 45 -36 69 -50 75 -44 7 7 -36
125 -48 132 -4 3 -11 0 -16 -7z"/>
<path d="M11104 1415 c-3 -13 -11 -23 -17 -22 -6 1 -12 -5 -14 -15 -3 -13 4
-16 41 -16 l46 0 -20 39 c-11 21 -22 39 -25 39 -3 0 -7 -11 -11 -25z"/>
<path d="M11270 1390 c0 -5 5 -10 10 -10 6 0 10 5 10 10 0 6 -4 10 -10 10 -5
0 -10 -4 -10 -10z"/>
<path d="M11045 1370 c-3 -5 -1 -10 4 -10 6 0 11 5 11 10 0 6 -2 10 -4 10 -3
0 -8 -4 -11 -10z"/>
<path d="M11230 1360 c0 -17 3 -19 19 -8 21 13 19 28 -5 28 -8 0 -14 -9 -14
-20z"/>
<path d="M10970 1271 c0 -6 4 -13 10 -16 6 -3 7 1 4 9 -7 18 -14 21 -14 7z"/>
<path d="M11300 1271 c0 -5 12 -12 28 -14 21 -3 18 -4 -12 -6 -55 -2 -39 -11
28 -17 34 -2 56 0 56 6 0 5 -4 10 -10 10 -5 0 -9 6 -7 13 1 8 -13 13 -40 15
-24 2 -43 -1 -43 -7z"/>
<path d="M10675 1200 c-3 -6 1 -7 9 -4 18 7 21 14 7 14 -6 0 -13 -4 -16 -10z"/>
<path d="M10638 1153 c6 -2 18 -2 25 0 6 3 1 5 -13 5 -14 0 -19 -2 -12 -5z"/>
</g>
</svg>
