<?xml version="1.0" standalone="no"?>
<!DOCTYPE svg PUBLIC "-//W3C//DTD SVG 20010904//EN"
 "http://www.w3.org/TR/2001/REC-SVG-20010904/DTD/svg10.dtd">
<svg version="1.0" xmlns="http://www.w3.org/2000/svg"
 width="257.000000pt" height="196.000000pt" viewBox="0 0 257.000000 196.000000"
 preserveAspectRatio="xMidYMid meet">

<g transform="translate(0.000000,196.000000) scale(0.100000,-0.100000)"
fill="#000000" stroke="none">
<path d="M980 1408 l0 -525 -395 -133 c-258 -86 -411 -143 -441 -163 -78 -52
-119 -136 -95 -195 24 -57 131 -94 375 -133 172 -27 380 -23 488 8 l67 20 3
-59 3 -60 200 -65 200 -65 495 174 c518 183 538 191 589 234 97 81 73 172 -62
239 -152 75 -424 104 -655 69 -87 -13 -289 -64 -354 -89 -17 -7 -18 18 -18
439 0 433 1 447 20 466 26 26 80 26 114 -1 l26 -20 0 -355 0 -354 26 -10 c47
-18 168 -23 222 -10 130 31 198 132 222 329 31 251 -68 442 -287 554 -108 54
-182 79 -480 157 -127 33 -239 63 -247 66 -14 6 -16 -46 -16 -518z m-7 -888
c-4 -4 -99 -38 -211 -74 -217 -72 -245 -75 -297 -34 -58 46 -36 60 260 166
l250 89 3 -70 c2 -38 -1 -73 -5 -77z m1161 100 c15 -5 26 -17 26 -28 0 -34
-16 -41 -667 -262 l-113 -39 0 68 0 67 288 96 c158 54 296 99 307 101 39 9
134 7 159 -3z"/>
</g>
</svg>
