<?xml version="1.0" standalone="no"?>
<!DOCTYPE svg PUBLIC "-//W3C//DTD SVG 20010904//EN"
 "http://www.w3.org/TR/2001/REC-SVG-20010904/DTD/svg10.dtd">
<svg version="1.0" xmlns="http://www.w3.org/2000/svg"
 width="1200.000000pt" height="800.000000pt" viewBox="0 0 1200.000000 800.000000"
 preserveAspectRatio="xMidYMid meet">

<g transform="translate(0.000000,800.000000) scale(0.100000,-0.100000)"
fill="#000000" stroke="none">
<path d="M0 6420 l0 -1580 39 0 c41 0 81 -26 93 -61 4 -11 24 -19 57 -23 28
-4 51 -11 51 -17 0 -6 7 -6 19 1 23 12 61 13 61 3 0 -5 39 -8 88 -8 81 0 90 2
123 29 27 22 35 34 31 52 -2 13 -8 24 -13 24 -5 0 -16 18 -25 40 -14 36 -20
40 -50 40 -20 0 -35 5 -36 13 -2 22 -5 32 -13 50 -4 9 -4 25 1 35 4 9 8 21 8
25 2 20 43 37 88 37 42 0 52 5 85 38 78 78 128 99 261 109 50 3 92 10 92 15 0
4 13 8 29 8 45 0 91 12 85 21 -3 5 2 9 10 9 9 0 16 5 16 10 0 6 11 10 24 10
14 0 28 -4 31 -10 3 -5 33 -10 66 -10 36 0 59 -4 59 -11 0 -6 6 -9 12 -7 7 3
49 -8 93 -24 44 -16 107 -36 140 -44 33 -8 69 -19 80 -24 11 -6 40 -16 65 -23
25 -8 44 -19 43 -25 -3 -12 51 -45 59 -37 3 3 15 -6 28 -20 13 -14 34 -25 46
-25 13 0 49 -11 79 -25 44 -19 80 -26 163 -30 59 -4 121 -9 137 -11 17 -3 56
-7 88 -11 32 -3 60 -10 63 -14 3 -5 18 -9 33 -9 16 0 34 -6 40 -13 6 -8 23
-12 41 -9 26 4 37 -2 66 -34 19 -22 37 -50 40 -64 10 -43 26 -80 36 -80 5 0 6
-10 3 -22 -5 -18 -4 -20 4 -8 8 11 11 12 11 2 0 -7 4 -10 10 -7 6 4 10 -9 10
-32 0 -21 3 -48 6 -60 4 -16 0 -23 -15 -28 -16 -5 -21 -15 -21 -44 0 -20 -6
-43 -13 -50 -9 -11 -9 -13 1 -7 7 4 12 1 12 -8 0 -9 21 -22 57 -33 58 -18 94
-44 106 -76 3 -9 14 -17 22 -17 9 0 13 -5 10 -11 -4 -6 -14 -8 -22 -5 -8 3
-11 1 -8 -4 3 -6 -1 -10 -10 -10 -43 0 -173 -105 -211 -170 l-18 -29 -27 28
c-14 15 -30 34 -35 42 -13 21 -71 59 -89 59 -8 0 -15 7 -15 15 0 12 -7 14 -28
9 -15 -4 -33 -11 -39 -17 -15 -11 -17 -37 -3 -37 6 0 10 -10 10 -23 0 -28 26
-67 46 -67 8 0 14 -6 14 -13 0 -8 11 -19 24 -26 15 -9 26 -27 33 -56 16 -70
17 -69 -157 -80 -45 -2 -79 0 -87 7 -9 7 -18 7 -30 -3 -12 -10 -50 -14 -142
-14 -130 0 -206 15 -228 43 -10 12 -29 14 -107 8 -72 -5 -105 -3 -138 8 -23 9
-45 11 -48 7 -3 -5 -31 -8 -62 -8 -39 0 -62 -5 -73 -17 -9 -9 -31 -16 -48 -16
-46 0 -65 -14 -48 -34 9 -11 10 -16 2 -16 -19 0 -12 -17 10 -23 16 -4 20 -10
14 -24 -4 -10 -8 -23 -8 -30 0 -7 -21 -22 -46 -34 -25 -12 -54 -26 -64 -31 -9
-4 -28 -6 -41 -2 -13 3 -27 1 -31 -5 -4 -8 -13 -7 -28 4 -12 8 -38 15 -58 15
-20 0 -50 5 -68 11 -26 9 -39 8 -79 -11 -26 -12 -51 -29 -55 -37 -6 -10 -17
-13 -33 -9 -22 6 -24 3 -24 -29 0 -19 -4 -35 -10 -35 -5 0 -10 3 -11 8 -11
132 -30 190 -85 251 -25 28 -43 51 -39 51 4 0 2 7 -5 15 -7 8 -16 12 -21 9 -5
-3 -21 3 -37 14 -15 11 -43 26 -62 34 -76 33 -93 35 -145 20 -55 -15 -75 -29
-80 -58 -2 -10 -4 -20 -5 -21 -3 -3 -4 -8 -15 -40 -4 -13 -11 -23 -16 -23 -16
0 2 -28 22 -33 10 -3 19 -10 19 -15 0 -17 -39 -1 -55 21 -8 12 -15 43 -15 70
0 65 -17 51 -25 -21 -6 -51 -34 -151 -55 -192 -4 -8 -10 -31 -14 -51 -5 -31
-3 -37 18 -49 14 -7 22 -18 19 -26 -7 -18 1 -18 45 3 36 16 89 66 124 115 16
22 16 21 6 -27 -6 -27 -14 -54 -19 -60 -5 -5 -9 -17 -9 -26 0 -10 -10 -19 -26
-22 -21 -4 -25 -1 -21 14 10 37 -22 18 -52 -31 -27 -46 -29 -70 -2 -46 22 20
56 14 65 -11 8 -21 -21 -53 -49 -53 -22 0 -35 -17 -35 -46 0 -8 6 -14 14 -14
9 0 16 -12 18 -27 3 -25 7 -28 34 -26 44 4 51 -21 14 -47 -28 -20 -124 -45
-115 -30 5 8 -36 22 -43 15 -3 -2 11 -28 29 -57 28 -43 34 -63 35 -111 0 -32
-3 -60 -7 -63 -14 -8 -57 18 -68 42 -13 29 -37 23 -45 -12 -4 -14 -16 -26 -31
-30 l-25 -6 0 -1544 0 -1544 4085 0 4085 0 0 33 c0 18 6 39 13 46 10 11 9 12
-2 6 -9 -5 -12 -4 -7 3 4 7 13 47 21 89 7 43 18 96 23 118 15 58 25 213 14
196 -15 -21 -4 67 25 209 16 80 42 163 71 231 45 106 46 107 79 106 18 -1 33
-5 33 -9 0 -5 -18 -61 -39 -126 -43 -126 -111 -369 -111 -394 0 -9 -7 -18 -15
-22 -8 -3 -15 -11 -15 -18 0 -9 3 -9 11 2 8 11 9 8 5 -15 -3 -16 -13 -88 -22
-160 -13 -94 -22 -136 -36 -151 -11 -13 -18 -36 -18 -62 0 -22 -4 -44 -10 -47
-24 -15 -9 -35 24 -35 28 0 35 4 39 22 l4 23 2 -22 1 -23 1870 0 1870 0 0
4000 0 4000 -6000 0 -6000 0 0 -1580z m5790 1230 c0 -5 -6 -10 -13 -10 -44 0
-163 -94 -179 -143 -6 -17 -19 -41 -28 -52 -21 -24 -27 -82 -16 -145 7 -36 10
-41 17 -25 4 11 8 33 8 48 1 41 27 84 61 102 47 24 64 19 77 -22 15 -47 -1
-80 -48 -102 -21 -10 -34 -24 -35 -36 0 -11 -4 -28 -8 -38 -12 -26 1 -33 23
-13 17 15 22 16 62 2 54 -19 95 -20 103 -3 5 10 7 10 12 0 7 -17 80 -16 119 1
24 10 36 10 65 0 19 -7 50 -13 68 -14 17 0 32 -5 32 -11 0 -6 -7 -9 -15 -5 -8
3 -36 -1 -62 -10 -40 -12 -59 -12 -111 -2 -72 14 -81 9 -89 -49 -4 -28 -12
-42 -30 -50 -22 -10 -25 -9 -34 15 -9 21 -7 33 5 56 l16 28 -27 -6 c-16 -4
-34 -16 -42 -26 -8 -12 -25 -20 -43 -20 l-30 0 27 -32 c21 -25 25 -38 21 -63
-4 -18 -3 -40 0 -49 6 -15 10 -14 35 10 22 21 32 25 41 16 17 -17 -5 -60 -33
-64 -24 -3 -48 -33 -36 -44 4 -4 21 2 37 14 16 12 37 22 45 22 13 0 12 -6 -9
-31 -30 -35 -30 -37 -11 -63 12 -16 17 -17 30 -6 28 23 15 2 -21 -34 -20 -20
-40 -33 -45 -30 -14 8 -11 -40 3 -54 7 -7 22 -12 34 -12 25 0 49 -24 39 -40
-9 -14 -33 -13 -107 6 -71 17 -98 41 -98 88 -1 17 -7 58 -14 91 -11 54 -15 60
-35 57 -30 -3 -55 26 -71 83 -11 39 -10 48 2 63 21 24 29 50 17 58 -7 4 -6 10
1 19 8 10 8 29 1 71 -15 78 -14 195 2 245 15 50 157 189 192 189 13 0 28 7 35
15 14 17 60 21 60 5z m170 0 c0 -5 -4 -10 -9 -10 -6 0 -13 5 -16 10 -3 6 1 10
9 10 9 0 16 -4 16 -10z m-130 -610 c0 -5 -9 -14 -21 -20 -19 -11 -20 -10 -9 9
11 22 30 29 30 11z m-237 -374 c18 -10 45 -26 60 -34 16 -8 33 -25 38 -39 13
-34 12 -35 -11 -23 -16 9 -20 8 -20 -4 0 -9 -12 -18 -27 -22 -16 -3 -38 -10
-51 -15 -13 -5 -28 -7 -33 -4 -5 4 -9 50 -8 103 0 71 3 92 10 77 5 -11 24 -29
42 -39z m-23 -171 c0 -9 -6 -12 -15 -9 -8 4 -12 10 -9 15 8 14 24 10 24 -6z
m-700 -140 c0 -9 -6 -12 -16 -8 -9 3 -20 0 -24 -8 -11 -17 -24 -5 -17 16 8 20
57 20 57 0z m11 -82 c38 -15 69 -30 69 -34 0 -7 -30 0 -106 25 -14 4 -26 0
-39 -14 -22 -24 -35 -26 -35 -4 0 22 19 54 32 54 6 0 41 -12 79 -27z m-141
-113 c0 -13 -11 -13 -30 0 -12 8 -11 10 8 10 12 0 22 -4 22 -10z m409 -604
c30 -56 31 -62 30 -190 0 -72 -3 -149 -8 -171 l-7 -40 -7 43 c-4 24 -4 49 -1
55 4 7 3 8 -2 4 -10 -10 -47 161 -48 226 -1 26 -4 47 -8 47 -5 0 -8 15 -8 33
0 19 -3 37 -7 41 -5 4 -8 19 -8 32 l-1 24 22 -22 c13 -13 37 -49 53 -82z
m-2172 -441 c3 -9 3 -19 -1 -22 -8 -9 -37 18 -30 28 8 14 24 11 31 -6z m1559
-19 c15 4 41 -1 64 -11 38 -17 58 -47 91 -133 18 -50 61 -59 176 -37 58 10 67
24 64 103 -3 87 6 77 12 -13 5 -67 17 -143 37 -233 6 -23 11 -93 11 -155 2
-109 2 -110 9 -42 4 39 11 137 15 218 4 82 12 144 16 140 5 -5 13 -105 19
-223 6 -118 12 -228 15 -245 3 -16 10 -194 15 -395 6 -201 15 -385 20 -410 5
-25 12 -96 16 -158 l7 -114 -29 4 c-32 3 -30 -3 -49 171 -5 48 -9 56 -20 47
-8 -7 -19 -9 -25 -5 -5 3 -10 1 -10 -5 0 -7 -6 -10 -14 -7 -8 3 -30 2 -49 -4
-36 -10 -64 -1 -136 42 -28 17 -49 20 -115 19 -45 -1 -101 2 -126 8 -63 14
-247 16 -290 3 -51 -16 -100 -14 -100 4 0 8 -4 15 -10 15 -5 0 -10 7 -10 15 0
23 -44 46 -96 49 -56 4 -84 -13 -84 -51 0 -13 -9 -40 -20 -60 -11 -21 -20 -34
-20 -30 0 4 -16 1 -36 -8 -60 -25 -125 -28 -164 -8 -29 15 -36 25 -41 58 -4
35 -2 43 24 66 36 31 29 49 -19 49 -19 0 -34 4 -34 10 0 5 -12 16 -27 24 -16
8 -44 29 -63 47 -46 44 -89 65 -147 74 -27 4 -54 11 -60 17 -9 7 -15 4 -21
-11 -6 -17 -13 -2 -35 68 -31 104 -71 178 -130 240 -26 27 -35 41 -23 37 12
-4 23 -1 28 6 6 10 10 10 16 1 5 -9 35 -12 93 -12 274 3 378 -1 393 -17 9 -9
32 -20 51 -25 28 -8 35 -15 35 -34 0 -14 4 -25 8 -25 5 0 8 10 8 23 -1 16 5
23 22 25 26 4 40 -21 23 -42 -9 -11 -9 -16 3 -23 8 -4 17 -21 21 -38 5 -21 4
-26 -3 -16 -6 8 -15 10 -23 6 -22 -14 19 -24 103 -24 42 -1 79 3 83 8 8 14
-16 61 -31 61 -7 0 -16 -5 -19 -10 -5 -8 -11 -7 -21 1 -11 9 -14 8 -14 -2 -1
-9 -8 -6 -19 9 -11 12 -29 22 -40 22 -12 0 -21 5 -21 10 0 6 18 10 40 10 29 0
40 4 40 15 0 12 16 15 80 15 73 0 83 -2 106 -25 14 -14 31 -25 39 -25 8 0 15
-5 15 -11 0 -6 8 -9 18 -7 10 3 26 0 35 -7 13 -9 30 -10 68 -2 43 8 61 7 104
-8 33 -11 66 -15 87 -12 26 5 134 18 158 19 18 1 70 -16 70 -23 0 -5 9 -9 21
-9 11 0 30 -5 41 -11 12 -6 49 -13 82 -14 60 -3 116 -20 116 -36 0 -5 7 -6 15
-3 10 4 15 0 15 -12 0 -9 3 -15 6 -12 13 13 2 380 -15 521 -10 81 -21 150 -23
153 -3 2 -17 -8 -31 -22 -20 -20 -27 -37 -27 -65 0 -21 -4 -41 -10 -44 -5 -3
-10 1 -10 9 0 14 -3 14 -19 4 -17 -10 -23 -8 -41 14 -11 15 -34 29 -50 33 -17
4 -30 11 -30 16 0 6 -4 7 -10 4 -5 -3 -10 -2 -10 2 0 5 -15 13 -32 18 -18 6
-33 15 -33 22 0 7 -8 21 -17 33 -10 11 -13 20 -8 20 6 0 10 5 10 10 0 6 -7 10
-15 10 -9 0 -15 7 -13 16 2 12 -10 20 -40 29 -24 8 -51 20 -60 28 -17 14 -51
30 -126 61 -24 10 -68 16 -118 16 -66 0 -89 -5 -131 -26 -43 -21 -59 -24 -100
-19 -27 4 -45 10 -40 14 8 8 141 58 228 86 28 9 55 22 60 29 12 15 145 80 162
79 6 0 9 6 5 15 -4 11 -1 14 12 9 9 -4 14 -3 11 2 -3 5 3 11 12 13 10 2 19 0
21 -4 2 -4 15 -5 28 -2z m-4136 -72 c0 -8 -4 -12 -10 -9 -5 3 -10 10 -10 16 0
5 5 9 10 9 6 0 10 -7 10 -16z m4901 -233 c35 -26 109 -63 147 -72 17 -4 32 -6
32 -4 0 7 -37 43 -50 48 -17 8 75 -2 96 -10 7 -2 23 -25 35 -50 l22 -46 -34
-32 c-19 -17 -33 -37 -31 -44 3 -8 9 -5 19 8 8 12 19 21 26 21 6 0 -1 -12 -16
-27 l-27 -27 -82 26 c-111 36 -130 41 -153 43 -16 1 -23 15 -37 73 -9 40 -14
81 -11 92 7 25 33 26 64 1z m344 -81 c17 0 15 -3 -10 -19 -27 -17 -31 -17 -42
-3 -19 24 -16 35 10 28 12 -3 31 -6 42 -6z m2194 -112 c7 -68 19 -183 27 -257
9 -73 16 -156 16 -185 1 -77 27 -387 34 -397 3 -5 12 -9 20 -9 16 0 16 -2 8
-24 -5 -13 -9 -14 -21 -5 -11 10 -17 8 -29 -9 -28 -41 -46 -52 -82 -53 -20 -1
-29 -3 -20 -6 13 -3 16 -11 11 -36 -7 -40 -12 -45 -23 -28 -7 12 -11 11 -25
-2 -9 -10 -21 -17 -26 -17 -5 0 -8 -6 -6 -12 1 -8 -13 -14 -38 -16 -50 -4 -60
-14 -45 -42 11 -20 10 -22 -5 -17 -9 4 -23 7 -31 7 -8 0 -14 7 -14 15 0 8 -12
22 -27 32 -70 43 -123 117 -123 169 0 7 16 21 35 33 32 19 50 20 200 19 91 0
168 2 171 5 4 4 15 2 25 -4 18 -9 19 -5 19 58 0 37 -4 106 -10 153 -5 47 -12
122 -15 168 -3 45 -17 191 -30 325 -29 279 -27 257 -16 257 4 0 13 -55 20
-122z m36 55 c3 -38 8 -86 11 -108 3 -31 2 -35 -5 -18 -6 12 -13 50 -16 85 -3
35 -8 73 -11 86 -2 12 0 22 5 22 5 0 12 -30 16 -67z m-2126 -132 c12 -8 12
-12 2 -24 -9 -12 -9 -17 0 -22 8 -5 10 -26 6 -61 -4 -40 -2 -54 9 -58 17 -6
19 -37 3 -53 -6 -6 -28 -9 -51 -5 -29 3 -39 2 -34 -6 3 -6 -3 -16 -14 -22 -11
-6 -20 -20 -20 -32 0 -17 3 -19 12 -10 7 7 19 12 27 12 12 0 11 -3 -2 -18 -22
-24 -22 -43 -1 -35 22 8 35 -16 21 -41 -6 -12 -12 -38 -13 -59 -1 -29 1 -37
12 -33 8 3 21 9 31 13 9 4 14 2 10 -3 -13 -21 -45 -206 -41 -236 6 -51 44 -62
44 -13 0 46 10 55 57 55 38 0 44 -2 33 -14 -6 -8 -19 -12 -27 -9 -12 5 -15 2
-11 -14 3 -11 1 -27 -4 -36 -5 -10 -4 -23 3 -35 9 -15 8 -24 -6 -45 -19 -29
-35 -33 -65 -17 -16 8 -18 7 -14 -4 3 -8 11 -17 19 -19 8 -4 11 -15 7 -33 -4
-24 -2 -26 17 -21 11 3 24 1 27 -5 3 -5 12 -7 19 -4 8 3 19 -2 27 -11 12 -14
10 -16 -17 -10 -16 3 -72 12 -123 19 -80 11 -93 15 -97 33 -2 11 -6 82 -9 158
-4 127 -12 172 -23 140 -3 -7 -11 -13 -19 -13 -40 0 -76 143 -54 211 14 43 6
67 -9 28 -7 -16 -10 -18 -10 -7 -1 29 11 48 30 48 20 0 26 15 10 24 -11 7 -26
113 -24 175 0 34 6 50 23 63 32 26 60 23 60 -6 0 -33 10 -57 21 -50 5 3 9 16
9 30 0 34 17 63 43 74 29 12 88 12 106 1z m2154 -156 c3 -44 2 -69 -2 -55 -11
35 -23 180 -12 155 4 -11 11 -56 14 -100z m877 -13 c0 -5 -13 -7 -30 -4 -16 2
-30 6 -30 8 0 2 14 4 30 4 17 0 30 -4 30 -8z m-164 -68 c-33 -131 -39 -274
-22 -503 1 -10 -8 -17 -25 -19 -24 -3 -27 1 -33 44 -9 70 -7 231 4 304 18 109
70 253 86 237 3 -3 -2 -31 -10 -63z m244 36 c19 -11 29 -19 22 -20 -14 0 -72
28 -72 35 0 9 15 4 50 -15z m-140 -17 c0 -53 -21 -187 -30 -199 -19 -22 -23
-74 -7 -74 17 0 31 -45 20 -63 -13 -21 -13 -45 1 -56 11 -9 15 -6 20 14 8 33
26 32 61 -5 34 -36 39 -36 72 -10 43 34 40 11 -3 -29 -23 -21 -43 -44 -46 -52
-5 -12 -9 -12 -29 0 -23 13 -24 13 -6 -6 9 -11 17 -27 17 -35 0 -9 7 -21 15
-28 8 -7 15 -18 15 -24 0 -7 6 -20 13 -30 12 -17 18 -17 51 -6 45 15 54 8 32
-24 -18 -28 -21 -66 -6 -66 16 0 12 -39 -7 -64 l-18 -23 -28 21 c-16 11 -42
33 -59 49 l-30 27 6 -37 c3 -21 2 -56 -2 -78 -8 -38 -9 -36 -21 48 -7 48 -10
94 -7 103 3 8 -2 26 -11 40 -16 25 -16 25 10 18 31 -7 32 -5 13 57 -25 80 -56
116 -56 63 0 -19 -4 -25 -15 -20 -8 3 -22 -3 -32 -12 -16 -16 -16 -16 -9 3 11
27 8 75 -6 92 -7 9 -9 54 -5 141 6 128 14 176 44 245 17 38 43 50 43 20z
m-6360 -53 c0 -5 -4 -10 -10 -10 -5 0 -10 5 -10 10 0 6 5 10 10 10 6 0 10 -4
10 -10z m9214 -16 c22 -9 20 -24 -4 -24 -12 0 -17 -5 -14 -13 3 -8 -2 -20 -10
-27 -13 -10 -17 -9 -26 11 -9 20 -10 18 -5 -16 2 -22 8 -53 11 -70 9 -43 -12
-20 -23 25 -7 26 -15 36 -34 39 -23 3 -23 2 -8 -15 9 -11 20 -30 24 -43 7 -23
6 -23 -41 -16 -27 4 -59 12 -71 19 -22 11 -21 12 27 45 28 19 50 38 50 42 0
11 70 48 92 49 9 0 23 -3 32 -6z m156 -8 c0 -8 -48 -12 -66 -5 -13 5 -7 8 24
8 23 1 42 -1 42 -3z m-4367 -36 c14 -11 28 -20 32 -20 15 0 55 -51 55 -70 0
-24 -26 -50 -49 -50 -27 0 -66 35 -85 75 -9 19 -21 35 -25 35 -10 0 -21 37
-13 44 12 13 61 5 85 -14z m-1493 -60 c-7 -13 -7 -26 -1 -38 13 -24 -1 -45
-24 -36 -11 5 -22 1 -30 -10 -11 -15 -13 -13 -17 14 -5 35 11 72 50 113 l27
29 3 -26 c2 -14 -2 -34 -8 -46z m2050 41 c0 -5 3 -17 7 -27 4 -11 3 -15 -4
-11 -14 9 -24 47 -12 47 5 0 9 -4 9 -9z m104 -13 c11 -15 16 -43 15 -83 l-1
-60 -10 43 c-12 57 -23 46 -19 -21 1 -28 1 -50 -2 -47 -8 8 -27 172 -21 181 9
15 22 10 38 -13z m766 -17 c-8 -5 -31 -11 -50 -14 -32 -6 -34 -6 -16 8 11 8
34 15 50 15 22 -1 27 -3 16 -9z m230 -6 c0 -8 -4 -15 -9 -15 -5 0 -11 7 -15
15 -3 9 0 15 9 15 8 0 15 -7 15 -15z m507 -190 l0 -150 -8 124 c-4 67 -10 130
-13 138 -3 8 -3 33 1 56 7 42 7 42 14 12 4 -16 7 -97 6 -180z m-602 185 c4 -6
-5 -10 -19 -10 -14 0 -26 5 -26 10 0 6 9 10 19 10 11 0 23 -4 26 -10z m-6310
-17 c-4 -10 -8 -22 -9 -28 -1 -5 -10 -23 -19 -40 l-16 -30 5 35 c6 35 29 80
40 80 4 0 3 -8 -1 -17z m153 -42 c16 -47 7 -67 -14 -35 -12 18 -22 21 -59 16
-37 -4 -45 -2 -45 12 0 17 75 59 94 53 6 -2 16 -22 24 -46z m4206 -82 c34
-178 91 -664 80 -678 -2 -2 -32 10 -66 26 -35 17 -73 34 -86 38 -21 6 -23 11
-18 58 2 29 6 66 9 82 3 17 8 62 11 100 4 39 11 111 16 160 11 100 19 237 20
304 0 24 2 42 5 39 3 -3 16 -61 29 -129z m-3014 100 c0 -5 -7 -9 -15 -9 -9 0
-12 6 -9 15 6 15 24 11 24 -6z m7424 -39 c21 -31 23 -40 12 -49 -18 -15 -66 6
-66 29 0 9 -5 21 -12 28 -8 8 -8 15 1 26 17 20 35 11 65 -34z m-2016 -61 c-5
-35 -28 -36 -28 -1 0 16 3 32 7 36 11 11 25 -10 21 -35z m-3488 27 c0 -3 -4
-8 -10 -11 -5 -3 -10 -1 -10 4 0 6 5 11 10 11 6 0 10 -2 10 -4z m3440 -26 c0
-5 -2 -10 -4 -10 -3 0 -8 5 -11 10 -3 6 -1 10 4 10 6 0 11 -4 11 -10z m2030 0
c10 -6 11 -10 3 -10 -7 0 -13 -4 -13 -10 0 -5 9 -10 20 -10 11 0 20 -4 20 -10
0 -5 9 -10 20 -10 27 0 27 2 -14 -77 -21 -42 -21 -43 16 -43 22 0 46 12 79 40
26 22 54 40 62 40 14 0 77 -28 77 -35 0 -2 -16 -13 -35 -25 -35 -22 -40 -44
-7 -33 14 5 14 3 -2 -9 -10 -8 -16 -20 -12 -26 5 -9 -7 -12 -39 -12 -52 0 -70
-21 -39 -45 11 -8 15 -15 9 -15 -5 0 -21 -10 -35 -21 l-25 -21 33 6 c17 3 32
2 32 -3 0 -10 -45 -31 -68 -31 -23 0 54 -73 81 -77 13 -2 47 19 94 58 66 54
76 60 89 47 13 -13 11 -21 -16 -65 -34 -55 -34 -95 1 -114 14 -7 19 -20 18
-47 l-2 -37 -6 35 -7 35 -7 -32 c-5 -24 -12 -33 -27 -33 -12 0 -20 -7 -20 -17
0 -10 -5 -25 -10 -33 -7 -10 -9 10 -7 63 2 50 8 81 16 86 8 5 2 10 -19 15 -57
11 -104 6 -137 -14 -30 -18 -44 -40 -25 -40 4 0 8 -15 9 -34 1 -19 14 -60 29
-92 16 -33 28 -64 29 -71 0 -6 12 -21 28 -33 30 -24 36 -43 10 -33 -29 11
-123 87 -123 100 0 6 -13 21 -30 33 -18 13 -30 30 -30 44 0 14 -17 36 -46 61
l-47 38 7 -71 c7 -70 2 -84 -21 -61 -9 9 -16 2 -28 -27 -10 -22 -19 -33 -22
-26 -3 6 -14 12 -25 12 -19 0 -19 2 5 45 21 38 46 134 60 235 l4 25 10 -24
c11 -27 17 -21 28 27 5 25 3 32 -9 32 -9 0 -16 -5 -16 -12 0 -6 -3 -9 -6 -5
-4 3 -2 19 4 35 6 17 7 34 3 38 -5 5 -5 51 -2 102 5 75 3 96 -9 108 -13 14
-13 17 5 30 19 14 19 16 2 25 -14 8 -16 14 -6 25 13 16 67 18 89 4z m-8525
-82 c-4 -46 -8 -84 -9 -85 -7 -8 -46 12 -46 23 0 8 -4 14 -10 14 -5 0 -10 -4
-10 -9 0 -5 -6 -16 -14 -23 -22 -22 -46 -75 -46 -100 1 -20 5 -18 41 22 38 43
40 44 54 26 17 -23 19 -36 5 -36 -5 0 -10 -8 -10 -18 0 -22 -22 -43 -63 -60
-15 -7 -32 -22 -37 -34 -7 -17 -9 1 -8 62 2 79 16 131 39 145 5 4 9 14 9 24 0
9 21 32 46 50 38 26 45 36 41 57 -3 17 0 24 11 24 12 0 13 -13 7 -82z m6141
17 c-5 -19 -43 -41 -53 -31 -7 6 27 74 39 79 16 5 22 -16 14 -48z m-6228 28
c-4 -20 -18 -26 -37 -14 -18 12 -5 31 20 31 14 0 19 -6 17 -17z m293 -16 c-5
-5 -17 -7 -26 -3 -14 5 -15 9 -5 21 10 12 16 13 27 4 9 -8 10 -16 4 -22z
m6326 -59 c-2 -13 -4 -3 -4 22 0 25 2 35 4 23 2 -13 2 -33 0 -45z m2083 28 c0
-3 -4 -8 -10 -11 -5 -3 -10 -1 -10 4 0 6 5 11 10 11 6 0 10 -2 10 -4z m-2110
-90 c0 -3 -4 -8 -10 -11 -5 -3 -10 -1 -10 4 0 6 5 11 10 11 6 0 10 -2 10 -4z
m-6510 -26 c-19 -13 -30 -13 -30 0 0 6 10 10 23 10 18 0 19 -2 7 -10z m-2630
-60 c0 -5 -7 -10 -16 -10 -8 0 -12 5 -9 10 3 6 10 10 16 10 5 0 9 -4 9 -10z
m7939 -67 c0 -40 -2 -44 -10 -25 -8 21 -3 72 7 72 2 0 4 -21 3 -47z m18 -20
c-3 -10 -5 -4 -5 12 0 17 2 24 5 18 2 -7 2 -21 0 -30z m-5377 -2 c0 -5 -5 -11
-12 -13 -7 -3 -12 -18 -13 -34 0 -22 -5 -30 -22 -32 -13 -2 -23 -8 -23 -14 0
-6 8 -7 18 -3 9 4 29 8 45 9 23 2 26 -1 21 -18 -7 -24 -44 -57 -59 -52 -16 4
-48 100 -36 104 6 2 11 10 11 17 0 8 7 21 16 29 17 17 54 22 54 7z m2832 -26
c9 -4 12 -23 10 -70 -3 -42 2 -82 13 -115 9 -28 14 -58 11 -67 -6 -14 -9 -14
-29 5 -12 11 -34 24 -49 27 -33 8 -33 12 -8 93 11 35 20 79 20 98 0 34 6 39
32 29z m5983 -125 c3 -5 1 -10 -4 -10 -6 0 -11 5 -11 10 0 6 2 10 4 10 3 0 8
-4 11 -10z m-11323 -52 c-6 -6 -15 -7 -22 -3 -8 5 -6 11 7 20 20 15 32 0 15
-17z m7328 -40 c0 -10 -5 -18 -11 -18 -5 0 -7 5 -4 10 8 13 -13 40 -31 40 -7
0 -18 -16 -25 -35 -7 -19 -17 -35 -21 -35 -14 0 -9 17 19 59 l26 40 23 -22
c13 -12 24 -30 24 -39z m-2660 -38 l-35 -30 37 0 c20 0 40 -4 43 -10 10 -17
23 -11 18 8 -4 15 2 18 34 18 21 -1 43 -4 49 -8 19 -12 13 -55 -10 -76 -117
-112 -136 -135 -125 -148 14 -17 5 -44 -15 -44 -7 0 -16 -7 -20 -15 -3 -8 -15
-15 -26 -15 -12 0 -18 5 -15 10 3 6 -1 10 -9 10 -9 0 -16 -9 -16 -20 0 -11 -4
-20 -10 -20 -5 0 -10 -16 -10 -35 0 -29 -5 -37 -25 -45 -14 -5 -25 -14 -25
-20 0 -7 -8 -9 -20 -5 -20 6 -26 -6 -20 -44 1 -10 -6 -12 -24 -9 -16 3 -26 1
-25 -6 4 -33 -1 -39 -19 -23 -10 10 -22 17 -25 17 -13 0 -7 -36 13 -73 27 -50
27 -83 0 -42 -38 58 -45 65 -62 65 -16 0 -16 -3 4 -35 24 -42 21 -49 -16 -35
-15 5 -31 8 -34 6 -4 -2 -21 16 -37 40 -34 50 -71 67 -90 40 -7 -9 -17 -16
-23 -16 -13 0 -75 -90 -68 -98 3 -2 13 1 22 8 13 11 17 11 24 0 12 -19 43 -23
36 -4 -4 12 -2 12 14 4 17 -9 18 -14 9 -31 -7 -13 -7 -30 -1 -47 6 -18 6 -33
-2 -44 -8 -14 -7 -20 8 -31 19 -14 18 -16 -19 -61 -22 -25 -44 -46 -49 -46
-14 0 -76 62 -76 76 0 6 -11 19 -24 28 -14 8 -26 28 -28 42 -3 25 -7 27 -56
30 -50 2 -54 1 -49 -18 5 -17 2 -19 -16 -14 -12 4 -42 9 -67 11 -36 5 -40 4
-22 -5 27 -11 19 -34 -9 -27 -26 7 -61 -27 -58 -55 2 -13 0 -29 -4 -35 -6 -9
-2 -13 12 -13 12 0 22 -7 23 -15 0 -8 1 -21 2 -27 1 -7 13 -24 28 -38 l27 -25
-33 -40 c-32 -40 -76 -111 -76 -122 0 -4 14 6 31 23 l31 29 -28 -55 c-26 -51
-28 -53 -34 -30 -6 21 -8 23 -15 7 -15 -36 8 -73 97 -160 68 -66 88 -91 80
-99 -9 -9 -32 9 -89 69 -80 82 -104 98 -120 82 -5 -5 -24 15 -48 53 -100 155
-109 230 -43 358 33 64 70 111 183 233 79 84 158 165 176 181 101 87 189 136
242 136 18 0 14 -5 -18 -24 -23 -14 -47 -36 -55 -50 -7 -14 -17 -26 -22 -26
-12 0 -9 -33 5 -51 27 -34 117 28 117 81 0 25 13 45 59 93 32 34 87 93 122
130 74 80 170 147 260 182 86 32 101 31 59 -5z m-4204 -27 c27 -65 34 -83 29
-83 -5 0 -43 70 -57 103 -4 9 -3 17 2 17 5 0 17 -17 26 -37z m6764 7 c0 -5 -5
-10 -11 -10 -5 0 -7 5 -4 10 3 6 8 10 11 10 2 0 4 -4 4 -10z m2190 -15 c0 -11
-11 -15 -37 -15 l-38 1 25 14 c33 19 50 19 50 0z m-976 -6 c14 -7 22 -17 19
-25 -3 -8 0 -14 6 -14 6 0 11 5 11 12 0 6 2 9 5 6 8 -8 -6 -39 -15 -33 -4 3
-10 -3 -12 -13 -3 -10 -38 -40 -79 -67 -72 -47 -119 -64 -119 -43 0 6 -9 8
-20 5 -11 -3 -20 -1 -20 5 0 6 -16 8 -37 6 -48 -6 -87 30 -76 71 4 14 7 34 7
44 0 19 4 20 59 17 21 -1 45 4 53 10 7 7 14 10 14 7 0 -3 15 0 33 8 39 17 137
19 171 4z m869 4 c-7 -2 -19 -2 -25 0 -7 3 -2 5 12 5 14 0 19 -2 13 -5z m207
-14 c0 -19 -4 -21 -36 -16 -20 3 -39 8 -41 11 -12 12 11 26 43 26 28 0 34 -4
34 -21z m-2549 -14 c109 -20 209 -45 232 -56 15 -8 17 -5 18 28 0 30 2 34 9
18 5 -11 6 -41 3 -67 -4 -37 -2 -48 8 -48 12 0 12 -2 0 -9 -16 -10 -16 -79 -2
-170 8 -49 8 -50 -18 -46 -14 2 -48 13 -74 24 -27 12 -55 21 -63 21 -8 0 -35
33 -60 73 -26 39 -73 99 -105 132 -54 55 -71 90 -52 108 9 9 9 9 104 -8z
m2629 -15 c12 -8 12 -10 -5 -10 -11 0 -27 5 -35 10 -12 8 -12 10 5 10 11 0 27
-5 35 -10z m1105 -67 c-2 -7 0 -13 6 -13 6 0 7 -5 3 -12 -4 -6 1 -17 10 -24
16 -11 16 -13 -1 -34 -53 -63 -99 -105 -117 -107 -16 -2 -18 -1 -6 6 8 5 17 8
21 5 8 -5 22 27 14 34 -3 3 -5 0 -5 -7 0 -7 -4 -10 -10 -6 -5 3 -18 -2 -29
-12 -20 -16 -20 -18 -3 -37 17 -21 17 -21 -4 -3 -11 9 -29 17 -40 17 -17 1
-17 2 -2 10 9 6 22 26 28 44 10 30 8 41 -11 78 -13 24 -22 50 -20 58 4 23 31
49 55 52 30 5 117 -34 111 -49z m659 25 c-4 -6 1 -17 10 -24 23 -16 12 -34
-20 -34 -20 0 -24 5 -24 28 0 32 7 42 27 42 8 0 11 -5 7 -12z m-3569 -68 c3
-6 -1 -7 -9 -4 -18 7 -21 14 -7 14 6 0 13 -4 16 -10z m47 3 c-13 -3 -19 -9
-16 -15 4 -7 2 -8 -5 -4 -17 11 -3 26 22 25 22 -2 22 -2 -1 -6z m124 -24 c8
-6 14 -16 14 -22 0 -18 -42 -57 -61 -57 -26 0 -32 16 -13 34 14 15 13 16 -8
16 -13 0 -30 5 -38 11 -13 9 -13 10 0 8 28 -3 40 1 40 12 0 6 -7 9 -15 5 -8
-3 -15 -1 -15 3 0 23 65 16 96 -10z m-7286 -74 c20 -21 26 -33 15 -26 -24 13
-55 40 -75 65 -14 18 -14 19 5 8 11 -5 36 -27 55 -47z m955 45 c-3 -5 -10 -10
-16 -10 -5 0 -9 5 -9 10 0 6 7 10 16 10 8 0 12 -4 9 -10z m9485 -30 c14 -16
44 -38 67 -49 23 -11 44 -25 48 -31 8 -13 3 -13 -30 0 -23 9 -26 8 -21 -5 5
-13 1 -15 -16 -9 -26 8 -97 53 -99 63 -1 3 -3 16 -4 27 -1 12 -6 27 -10 34
-15 24 39 -1 65 -30z m-6232 21 c10 -6 10 -10 -3 -21 -37 -31 -4 -41 35 -10
38 30 43 24 16 -17 -22 -35 -24 -48 -25 -180 0 -79 3 -143 8 -143 5 0 11 6 14
13 8 21 19 -100 12 -131 -3 -17 -2 -33 4 -36 5 -3 19 -37 32 -74 12 -37 26
-72 31 -78 5 -8 1 -13 -12 -17 -21 -5 -27 -31 -10 -42 6 -3 10 -17 10 -30 0
-15 10 -31 26 -42 23 -14 32 -15 72 -4 42 11 47 10 66 -9 17 -16 21 -33 21
-80 0 -33 -3 -60 -6 -60 -4 0 -12 -15 -19 -32 -7 -18 -22 -58 -33 -88 -12 -30
-25 -59 -29 -65 -4 -5 -8 -17 -8 -27 0 -10 -4 -18 -10 -18 -5 0 -10 -7 -10
-15 0 -13 -4 -14 -21 -5 -34 19 -55 66 -74 163 -10 51 -27 109 -39 130 -11 21
-29 53 -38 70 -10 18 -18 46 -18 63 0 18 -11 60 -24 95 -37 98 -135 302 -156
324 -36 39 -53 101 -45 163 4 31 9 75 10 97 3 61 4 62 23 37 l18 -23 19 20
c10 12 24 21 31 21 7 0 15 9 19 19 4 12 12 17 24 14 11 -3 21 2 24 11 7 17 43
21 65 7z m-2563 -173 c-22 -43 -35 -61 -31 -43 l7 30 -19 -24 -19 -24 -5 27
c-4 18 -1 29 8 33 7 2 18 20 24 39 8 23 18 34 31 34 10 0 19 5 19 12 0 9 3 9
12 0 9 -9 2 -29 -27 -84z m-693 55 c-11 -16 -21 -32 -22 -38 -4 -15 -21 -58
-31 -78 -6 -10 -7 -22 -4 -27 4 -6 1 -10 -4 -10 -6 0 -11 -9 -11 -20 0 -21 -4
-24 -53 -35 -26 -5 -28 -4 -22 17 16 56 51 112 99 163 55 59 80 73 48 28z m61
-9 c11 -66 -19 -87 -37 -26 -6 22 -5 36 4 47 19 23 27 18 33 -21z m567 21 c9
-10 9 -15 1 -15 -6 0 -11 4 -11 9 0 5 -21 2 -47 -6 -27 -8 -57 -15 -67 -15
-10 1 -32 -6 -47 -14 -16 -8 -29 -11 -29 -7 0 12 130 62 161 62 15 1 32 -6 39
-14z m8495 -45 c4 -6 -5 -10 -19 -10 -14 0 -26 5 -26 10 0 6 9 10 19 10 11 0
23 -4 26 -10z m-3121 -16 c3 -9 6 -24 6 -35 0 -10 7 -19 15 -19 8 0 15 -5 15
-12 0 -6 -3 -8 -7 -5 -11 11 -32 -13 -27 -31 3 -9 -1 -6 -10 8 -8 14 -10 26
-5 28 5 2 2 10 -6 19 -8 8 -15 20 -14 26 0 9 2 8 6 0 9 -25 22 -13 13 12 -5
14 -6 25 -1 25 5 0 12 -7 15 -16z m-5519 -29 c-22 -19 -35 -35 -29 -35 6 0 17
7 24 15 7 8 18 15 26 15 7 0 19 6 27 14 7 8 19 11 26 7 12 -8 -24 -42 -166
-154 -87 -69 -106 -58 -30 16 29 29 52 58 49 65 -2 7 4 22 14 34 19 20 19 21
-5 13 -16 -5 -21 -4 -17 4 4 6 17 11 29 11 12 0 33 7 47 14 44 25 46 16 5 -19z
m-257 0 c10 -21 9 -27 -3 -32 -19 -7 -22 -5 -30 30 -9 36 17 37 33 2z m112 -5
c0 -5 -5 -10 -11 -10 -5 0 -7 5 -4 10 3 6 8 10 11 10 2 0 4 -4 4 -10z m5710 0
c0 -5 -7 -10 -15 -10 -8 0 -15 5 -15 10 0 6 7 10 15 10 8 0 15 -4 15 -10z
m250 -4 c0 -2 -7 -9 -15 -16 -13 -11 -14 -10 -9 4 5 14 24 23 24 12z m790
-125 c0 -115 -2 -131 -18 -143 -85 -60 -174 -147 -165 -161 3 -5 2 -8 -3 -5
-10 7 -27 -11 -32 -31 -5 -23 -27 -38 -46 -32 -26 10 -186 173 -186 191 0 8
15 36 33 62 147 209 142 203 214 218 32 7 74 16 93 20 19 4 52 8 73 9 l37 1 0
-129z m1717 94 c23 -14 43 -30 43 -36 0 -11 -9 -7 -52 23 -14 10 -33 15 -42
12 -12 -5 -15 -2 -10 10 8 21 9 21 61 -9z m1273 -12 c-1 -23 -18 -45 -51 -66
-23 -15 -27 -15 -45 -2 -18 15 -18 16 21 50 44 38 75 45 75 18z m-9695 -13 c3
-5 1 -10 -4 -10 -6 0 -11 5 -11 10 0 6 2 10 4 10 3 0 8 -4 11 -10z m9431 -42
c3 -5 3 -12 0 -16 -8 -8 -96 35 -96 47 0 12 87 -17 96 -31z m-9747 18 c-2 -2
-17 -6 -34 -10 -22 -5 -26 -4 -15 4 14 9 59 15 49 6z m544 -10 c-6 -19 -210
-109 -218 -96 -4 6 1 10 10 10 22 0 136 58 157 80 16 17 56 22 51 6z m-326
-39 c-8 -24 -18 -37 -29 -37 -10 0 -18 -4 -18 -10 0 -5 12 -10 26 -10 22 0 25
-2 14 -15 -7 -8 -19 -15 -26 -15 -8 0 -14 -4 -14 -10 0 -15 27 -12 61 6 17 8
36 13 42 11 6 -2 -11 -12 -38 -22 -28 -10 -54 -22 -59 -27 -21 -18 -38 -9 -32
17 6 22 3 25 -19 25 -33 0 -41 22 -20 54 9 14 14 30 10 36 -3 5 1 10 9 10 8 0
18 -4 21 -10 10 -16 23 -12 21 7 -1 12 9 19 29 23 17 4 31 6 32 6 1 -1 -4 -18
-10 -39z m-810 17 c-3 -3 -12 -4 -19 -1 -8 3 -5 6 6 6 11 1 17 -2 13 -5z
m1018 -4 c-3 -5 -11 -10 -16 -10 -6 0 -7 5 -4 10 3 6 11 10 16 10 6 0 7 -4 4
-10z m-945 -49 c5 7 12 10 16 6 4 -3 1 -13 -6 -22 -8 -10 -9 -15 -1 -15 6 0
11 5 11 10 0 6 9 10 20 10 11 0 19 -3 18 -7 0 -5 3 -17 7 -27 8 -19 9 -19 16
0 3 10 3 24 -2 29 -9 12 63 13 99 1 l22 -7 -20 -26 c-11 -14 -20 -31 -20 -38
0 -7 -7 -18 -15 -25 -8 -7 -15 -19 -15 -28 0 -12 6 -10 28 9 52 47 91 69 164
93 40 13 82 28 92 32 15 6 17 4 11 -7 -5 -8 -12 -61 -15 -119 -5 -97 -7 -105
-25 -105 -13 0 -25 -12 -35 -33 -10 -21 -21 -31 -31 -28 -9 2 -29 -7 -45 -21
-15 -13 -39 -26 -53 -30 -28 -7 -51 -26 -51 -42 0 -6 -6 -8 -14 -5 -8 3 -19
-3 -25 -15 -6 -11 -17 -18 -24 -15 -7 2 -17 -5 -22 -17 -17 -37 -30 -17 -29
46 0 46 8 77 34 133 18 40 30 75 27 79 -4 3 -9 -2 -13 -11 -5 -13 -15 -2 -41
45 -30 54 -78 125 -113 166 -22 27 -8 26 16 -1 20 -23 28 -26 34 -15z m33 32
c-7 -2 -19 -2 -25 0 -7 3 -2 5 12 5 14 0 19 -2 13 -5z m3764 -15 c-3 -8 -6 -5
-6 6 -1 11 2 17 5 13 3 -3 4 -12 1 -19z m-3197 -28 c0 -5 -4 -10 -10 -10 -5 0
-10 5 -10 10 0 6 5 10 10 10 6 0 10 -4 10 -10z m-40 -25 c0 -14 -4 -25 -10
-25 -5 0 -10 11 -10 25 0 14 5 25 10 25 6 0 10 -11 10 -25z m3245 -50 c4 -38
4 -67 1 -64 -10 9 -26 120 -20 131 9 14 11 8 19 -67z m-3315 25 c0 -21 -15
-27 -25 -10 -7 12 2 30 16 30 5 0 9 -9 9 -20z m67 -42 c-3 -8 -6 -5 -6 6 -1
11 2 17 5 13 3 -3 4 -12 1 -19z m792 5 c1 18 21 25 21 6 0 -27 -33 -149 -41
-155 -6 -3 -16 -1 -23 5 -7 6 -16 8 -19 4 -4 -3 -7 -2 -7 4 0 6 -9 9 -20 6
-12 -3 -20 0 -20 6 0 8 14 11 37 9 30 -2 38 1 41 17 4 17 2 18 -12 6 -10 -9
-28 -11 -56 -6 -55 9 -51 26 5 18 38 -5 45 -3 45 11 0 9 7 33 16 54 14 33 17
35 24 17 7 -17 9 -17 9 -2z m-909 -12 c0 -5 8 -11 18 -14 16 -4 16 -4 -2 -12
-12 -5 -21 -3 -27 6 -12 19 -11 29 1 29 6 0 10 -4 10 -9z m776 -38 c-7 -7 -26
7 -26 19 0 6 6 6 15 -2 9 -7 13 -15 11 -17z m8439 -74 c39 -26 47 -41 83 -149
5 -15 -39 21 -84 70 -46 49 -114 134 -114 143 0 9 42 -14 115 -64z m-8539 30
c3 -5 1 -9 -5 -9 -17 0 -41 12 -41 20 0 10 38 1 46 -11z m8006 -44 l-6 -30 -7
25 c-4 14 -7 34 -8 45 -1 17 1 17 13 5 10 -10 12 -25 8 -45z m668 -95 c0 -15
-41 2 -55 23 -25 35 -17 40 20 11 19 -14 35 -30 35 -34z m-3285 -2 c7 -31 9
-56 6 -103 l-2 -40 -19 55 c-24 67 -26 110 -5 110 8 0 17 -10 20 -22z m-3171
-383 c3 -138 8 -260 11 -273 6 -32 -13 -38 -25 -7 -6 15 -30 47 -55 71 -25 24
-45 48 -45 55 0 9 3 9 14 0 11 -9 15 -9 19 1 4 10 9 9 20 -4 10 -13 16 -15 25
-6 9 9 12 7 12 -10 0 -12 3 -22 8 -22 7 0 7 63 -1 367 -1 57 0 97 4 90 3 -6 9
-125 13 -262z m5868 224 c44 -11 45 -13 54 -67 l7 -42 -34 0 c-50 1 -111 17
-120 32 -5 7 -9 32 -9 56 l0 44 33 -7 c17 -4 49 -11 69 -16z m-8642 -106 c0
-2 13 -31 30 -65 16 -33 27 -64 24 -69 -3 -5 2 -23 10 -41 9 -17 16 -37 16
-44 0 -7 5 -25 12 -39 l12 -26 17 23 c10 12 21 19 25 15 9 -9 -14 -210 -28
-247 -5 -14 -17 -33 -26 -43 -9 -10 -18 -38 -19 -63 -5 -74 -38 -147 -84 -184
-35 -27 -40 -37 -37 -62 4 -23 -1 -33 -19 -45 -19 -12 -23 -22 -18 -42 4 -21
0 -33 -21 -51 -35 -33 -76 -98 -69 -110 4 -6 1 -10 -4 -10 -7 0 -11 42 -11
118 0 64 -5 148 -10 185 -7 47 -7 81 1 111 9 36 7 54 -10 112 -12 37 -28 75
-35 84 -7 8 -31 56 -53 105 -33 73 -42 106 -47 174 -4 47 -12 105 -17 130 -6
26 -13 67 -15 93 -3 47 -3 47 22 38 14 -6 55 -10 92 -10 54 1 80 7 137 34 l70
32 28 -49 c15 -28 27 -52 27 -54z m9441 -29 c108 -34 189 -70 189 -84 0 -15
-62 -40 -97 -40 -46 0 -292 129 -293 154 0 15 112 -2 201 -30z m-198 -20 c29
-21 47 -41 43 -49 -7 -19 7 -28 120 -85 55 -27 93 -50 85 -50 -15 0 -249 113
-272 132 -21 17 -50 74 -42 82 10 10 15 7 66 -30z m-9115 -45 c-10 -6 -15 -17
-12 -27 4 -12 -1 -10 -15 7 l-22 24 23 12 c28 14 53 -1 26 -16z m185 17 c10
-8 18 -18 17 -22 -1 -5 3 -10 9 -12 6 -2 11 1 11 7 0 6 7 11 15 11 13 0 14 -4
5 -21 -9 -16 -19 -19 -48 -17 -33 3 -37 6 -39 36 -3 35 3 38 30 18z m1472 -27
c39 -6 77 -14 85 -17 8 -3 18 -4 23 -4 4 1 7 -5 7 -13 0 -9 6 -18 14 -21 9 -3
12 -13 9 -22 -4 -9 -3 -14 1 -10 5 4 23 -8 40 -25 18 -18 95 -88 172 -157 155
-139 284 -265 284 -279 0 -10 84 -81 97 -81 4 0 22 -15 38 -32 17 -17 23 -27
15 -23 -8 5 -21 10 -30 11 -8 1 -43 5 -77 9 -35 5 -63 11 -63 15 0 10 -46 23
-85 26 -177 10 -184 9 -205 -14 -18 -19 -31 -22 -91 -21 -51 1 -72 5 -76 16
-4 10 -16 12 -50 7 -28 -4 -48 -3 -52 4 -8 13 -106 17 -206 8 -145 -13 -153
-15 -164 -44 l-11 -27 4 28 c2 17 -1 27 -10 27 -7 0 -15 6 -18 13 -3 6 -2 -1
1 -18 6 -27 5 -28 -9 -15 -8 9 -18 22 -21 30 -3 8 -5 -13 -4 -47 1 -35 -1 -63
-5 -63 -4 0 -5 78 -3 174 5 200 3 194 119 370 36 55 66 104 66 109 0 5 12 28
26 51 23 36 31 41 68 44 22 1 73 -3 111 -9z m-1450 -59 c3 -5 16 -10 28 -10
31 -1 3 -15 -45 -24 -36 -7 -38 -5 -38 19 0 20 5 25 24 25 14 0 28 -4 31 -10z
m-1090 -128 c9 -26 35 -87 58 -137 41 -89 41 -91 43 -220 2 -71 8 -146 14
-165 6 -19 15 -70 20 -114 5 -43 14 -84 19 -90 6 -7 17 -37 25 -67 8 -30 22
-75 31 -101 13 -36 14 -51 5 -68 -9 -17 -7 -28 11 -58 17 -29 22 -54 23 -119
0 -45 -2 -85 -6 -88 -4 -4 -18 -9 -30 -11 -13 -3 -38 -7 -57 -10 -48 -9 -245
16 -231 30 5 5 10 17 10 26 0 9 18 58 39 109 39 89 39 94 30 154 -13 81 -27
100 -92 127 -62 26 -78 54 -79 142 0 29 -4 58 -10 65 -5 6 -8 20 -6 30 1 10
-1 23 -5 30 -4 6 -2 35 5 63 11 49 11 53 -11 69 -30 23 -23 60 25 149 19 34
34 74 34 88 0 25 33 149 50 189 5 11 12 36 16 55 3 19 9 39 12 44 6 10 30 -42
57 -122z m4335 107 c0 -5 -4 -9 -10 -9 -5 0 -10 7 -10 16 0 8 5 12 10 9 6 -3
10 -10 10 -16z m-43 -5 c3 -9 1 -19 -6 -23 -8 -5 -10 -23 -7 -48 3 -27 0 -47
-10 -60 -14 -17 -14 -17 -29 1 -8 11 -15 25 -15 32 0 6 -7 14 -15 18 -11 4
-13 11 -6 28 5 13 8 27 7 33 0 5 8 11 19 13 11 2 24 8 30 13 14 13 25 11 32
-7z m6033 -4 c-8 -5 -19 -10 -25 -10 -5 0 -3 5 5 10 8 5 20 10 25 10 6 0 3 -5
-5 -10z m-9202 -142 c12 -32 7 -53 -7 -29 -6 10 -10 9 -15 -4 -4 -11 -12 -14
-26 -10 -14 5 -20 2 -20 -9 0 -27 -15 -18 -18 10 -2 32 27 73 53 74 14 0 24
-10 33 -32z m3122 -36 c14 -16 23 -62 12 -62 -10 0 -41 47 -42 63 0 22 12 22
30 -1z m2195 -72 c22 -42 19 -46 -10 -12 -27 32 -31 42 -15 42 5 0 16 -13 25
-30z m769 -113 c0 -56 -4 -129 -8 -163 l-9 -61 48 -6 c26 -4 100 -8 164 -8
114 -2 115 -2 47 -10 -99 -13 -111 -25 -35 -34 35 -4 81 -7 102 -6 20 2 53 -3
73 -9 30 -10 38 -10 45 1 7 11 9 11 9 -2 0 -9 -9 -19 -20 -22 -17 -4 -20 -14
-22 -74 l-1 -68 -6 65 -6 65 -9 -65 c-5 -36 -8 -75 -7 -87 1 -13 -2 -23 -8
-23 -6 0 -8 6 -5 14 3 8 1 23 -5 33 -10 15 -11 10 -9 -27 3 -36 -1 -46 -18
-55 -11 -5 -19 -16 -16 -24 3 -8 -2 -12 -14 -9 -17 3 -19 15 -19 136 0 72 -3
132 -7 132 -5 0 -8 -24 -8 -52 0 -29 -3 -90 -7 -135 -6 -82 -6 -83 -33 -83
-49 0 -90 -12 -90 -26 0 -10 13 -14 41 -14 l42 0 -7 -37 c-3 -21 -6 -48 -6
-60 0 -16 -4 -21 -15 -17 -11 5 -15 -1 -15 -19 0 -14 5 -29 10 -32 16 -10 12
-65 -4 -65 -25 0 -28 -18 -15 -90 13 -76 4 -120 -26 -120 -9 0 -15 -6 -13 -14
4 -19 -42 -77 -56 -69 -6 4 -17 8 -26 9 -8 1 -23 5 -32 9 -12 5 -23 -3 -40
-30 -21 -33 -26 -36 -60 -31 -33 6 -37 4 -47 -26 -14 -39 -14 -51 -1 -43 6 3
10 1 10 -6 0 -11 16 -10 68 7 21 6 23 4 20 -17 -2 -19 -14 -28 -61 -43 -32
-10 -60 -16 -63 -13 -3 3 2 50 11 104 9 54 19 114 22 133 3 19 14 41 24 48 11
7 19 20 19 28 0 8 6 14 13 13 32 -4 40 1 27 16 -7 8 -16 12 -21 9 -5 -3 -9 0
-9 6 0 6 -5 8 -12 4 -17 -11 -2 69 22 114 11 20 20 44 20 53 0 9 11 45 24 80
13 35 27 86 30 113 8 52 7 51 74 31 18 -6 22 -4 22 14 0 11 6 20 13 19 9 -2
13 25 15 105 2 76 -1 107 -9 107 -7 0 -9 10 -5 30 3 17 1 30 -4 30 -16 0 -39
-30 -34 -44 3 -8 -2 -26 -12 -41 -15 -23 -15 -28 -3 -36 8 -5 22 -9 32 -9 9 0
17 -5 17 -11 0 -5 -8 -9 -17 -8 -40 4 -53 -2 -53 -21 0 -10 8 -23 17 -29 14
-7 15 -12 5 -24 -10 -12 -8 -16 10 -21 18 -5 20 -8 9 -15 -15 -9 -91 -7 -134
4 l-28 7 7 88 6 87 -58 8 c-74 9 -156 36 -259 85 -44 21 -100 44 -125 50 -63
15 -100 31 -100 41 0 5 -5 9 -11 9 -13 0 -32 19 -47 47 -18 33 14 113 45 113
13 0 23 5 23 11 0 6 7 8 16 5 8 -3 31 1 51 9 19 8 39 12 44 9 5 -2 26 0 46 5
93 24 253 43 341 40 50 -2 92 -1 92 4 0 4 3 7 8 7 4 0 7 -46 6 -103z m-2884
68 c0 -14 -2 -25 -4 -25 -2 0 -6 11 -8 25 -3 14 -1 25 3 25 5 0 9 -11 9 -25z
m-3434 -117 c-2 -15 -11 -24 -25 -26 -20 -3 -21 -1 -12 16 9 17 19 25 38 31 2
1 1 -9 -1 -21z m9077 -52 c23 -18 22 -23 -8 -29 -18 -3 -29 1 -35 13 -16 30
11 40 43 16z m-9093 -13 c-1 -19 -17 -32 -38 -30 -28 2 -28 15 1 27 28 11 37
12 37 3z m-720 -31 c0 -5 -9 -17 -20 -27 -19 -18 -20 -17 -20 2 0 11 3 23 7
26 9 10 33 9 33 -1z m0 -57 c-7 -9 -15 -13 -17 -11 -7 7 7 26 19 26 6 0 6 -6
-2 -15z m7530 5 c0 -5 -4 -10 -10 -10 -5 0 -10 5 -10 10 0 6 5 10 10 10 6 0
10 -4 10 -10z m-6657 -37 c-7 -2 -21 -2 -30 0 -10 3 -4 5 12 5 17 0 24 -2 18
-5z m9267 -63 c0 -5 -5 -10 -11 -10 -5 0 -7 5 -4 10 3 6 8 10 11 10 2 0 4 -4
4 -10z m-2613 -92 c-2 -18 -4 -4 -4 32 0 36 2 50 4 33 2 -18 2 -48 0 -65z
m-3308 -20 c1 -14 -7 -18 -34 -18 -19 0 -35 -4 -35 -10 0 -5 -5 -10 -11 -10
-6 0 -8 8 -4 19 3 11 1 22 -5 26 -21 13 -10 35 18 35 15 0 34 5 42 10 15 10
27 -11 29 -52z m-3609 2 c0 -5 -2 -10 -4 -10 -3 0 -8 5 -11 10 -3 6 -1 10 4
10 6 0 11 -4 11 -10z m2767 -42 c-2 -13 -4 -5 -4 17 -1 22 1 32 4 23 2 -10 2
-28 0 -40z m-1310 20 c-3 -8 -6 -5 -6 6 -1 11 2 17 5 13 3 -3 4 -12 1 -19z
m-1147 -30 c0 -21 -3 -29 -10 -22 -5 5 -7 19 -4 32 9 31 14 27 14 -10z m2928
-7 c-2 -9 -13 -17 -26 -19 -25 -4 -27 1 -12 28 12 23 43 15 38 -9z m5992 -6
c0 -21 -17 -27 -33 -11 -8 8 -18 12 -22 8 -5 -4 -6 -2 -2 3 9 17 57 17 57 0z
m-6014 -41 c35 -9 30 -28 -6 -21 -16 4 -29 3 -28 -1 3 -17 -16 -42 -33 -42
-14 0 -18 7 -17 28 3 30 26 54 46 47 8 -3 25 -8 38 -11z m5639 7 c3 -5 1 -12
-5 -16 -5 -3 -10 1 -10 9 0 18 6 21 15 7z m-8885 -29 c0 -5 -11 -14 -25 -20
-20 -9 -25 -9 -25 2 0 7 3 16 7 19 9 10 43 9 43 -1z m-168 -77 c-2 -14 -8 -25
-12 -25 -4 0 -5 11 -2 25 2 14 8 25 12 25 4 0 5 -11 2 -25z m9888 -5 c0 -5 -4
-10 -10 -10 -5 0 -10 5 -10 10 0 6 5 10 10 10 6 0 10 -4 10 -10z m-2968 -24
c8 -11 -11 -54 -34 -80 -18 -19 -18 -19 -18 17 0 57 30 93 52 63z m2492 -28
c5 -25 3 -38 -4 -38 -16 0 -23 26 -16 56 8 32 11 29 20 -18z m-9414 2 c0 -5
-8 -10 -17 -10 -15 0 -16 2 -3 10 19 12 20 12 20 0z m9410 -108 c0 -21 -2 -22
-15 -12 -8 7 -15 27 -15 44 1 29 1 30 15 12 8 -11 15 -31 15 -44z m-9048 26
c-7 -7 -12 -21 -12 -32 0 -10 -3 -17 -6 -13 -10 10 5 57 18 57 9 0 9 -3 0 -12z
m-342 -12 c0 -29 -13 -76 -21 -76 -5 0 -9 20 -9 45 0 33 4 45 15 45 8 0 15 -6
15 -14z m540 -41 c-7 -9 -15 -13 -17 -11 -7 7 7 26 19 26 6 0 6 -6 -2 -15z
m-155 -23 c-6 -7 -45 9 -45 18 0 4 11 3 24 -3 14 -7 23 -13 21 -15z m9022
-104 c24 -113 29 -183 12 -193 -6 -4 -8 -13 -5 -21 10 -26 -12 -14 -39 22
l-28 36 -20 -20 c-17 -18 -18 -23 -7 -36 11 -14 9 -16 -10 -16 -22 0 -23 2
-16 71 6 67 43 255 53 272 2 4 12 3 21 -2 11 -6 24 -45 39 -113z m-7650 -90
c-3 -8 -6 -5 -6 6 -1 11 2 17 5 13 3 -3 4 -12 1 -19z m-1209 -43 c-6 -14 -13
-23 -15 -21 -5 5 15 46 22 46 3 0 -1 -11 -7 -25z m5845 -90 c-3 -9 -8 -14 -10
-11 -3 3 -2 9 2 15 9 16 15 13 8 -4z m2922 -73 c14 -32 16 -45 7 -54 -19 -19
-34 5 -40 64 -5 59 4 57 33 -10z m-2773 -4 c-6 -6 -15 -8 -19 -4 -4 4 -1 11 7
16 19 12 27 3 12 -12z m-72 -137 c0 -9 -7 -25 -16 -36 -14 -19 -15 -17 -12 21
2 28 7 40 16 37 6 -3 12 -13 12 -22z m-4 -81 l25 0 -25 -25 c-14 -14 -28 -25
-31 -25 -3 0 -5 17 -4 38 0 20 3 31 6 25 2 -7 16 -13 29 -13z"/>
<path d="M5507 7044 c-13 -14 -7 -51 11 -67 26 -24 46 -22 32 2 -5 11 -9 30
-7 42 2 23 -21 37 -36 23z"/>
<path d="M5530 6939 c0 -15 18 -19 23 -6 3 8 -1 14 -9 14 -8 0 -14 -4 -14 -8z"/>
<path d="M5690 6770 c0 -5 5 -10 11 -10 5 0 7 5 4 10 -3 6 -8 10 -11 10 -2 0
-4 -4 -4 -10z"/>
<path d="M5080 5620 c0 -5 5 -10 11 -10 5 0 7 5 4 10 -3 6 -8 10 -11 10 -2 0
-4 -4 -4 -10z"/>
<path d="M4630 3853 c0 -7 9 -13 19 -13 13 0 21 -8 23 -22 2 -15 11 -24 26
-26 12 -2 22 -10 22 -18 0 -8 9 -14 20 -14 11 0 20 -4 20 -8 0 -11 166 -10
176 1 13 13 32 7 37 -10 4 -17 5 -17 6 0 0 9 4 17 7 17 4 0 13 -8 20 -17 12
-16 13 -8 14 52 0 49 -3 66 -10 55 -8 -13 -11 -13 -19 -1 -7 11 -10 10 -15 -6
-12 -37 -161 -53 -215 -23 -12 6 -26 8 -31 5 -6 -3 -10 -1 -10 4 0 6 -9 11
-20 11 -11 0 -20 7 -20 15 0 10 -9 14 -25 13 -14 -1 -25 -8 -25 -15z m357 -45
c-3 -7 -5 -2 -5 12 0 14 2 19 5 13 2 -7 2 -19 0 -25z"/>
<path d="M5290 4758 c53 -32 181 -90 187 -84 6 6 -193 106 -211 106 -6 0 5
-10 24 -22z"/>
<path d="M5506 4138 c-16 -70 -10 -95 25 -112 29 -14 30 -14 23 2 -4 9 -8 38
-9 63 -2 47 -10 69 -25 69 -5 0 -12 -10 -14 -22z"/>
<path d="M8670 3994 c0 -8 5 -12 10 -9 6 4 8 11 5 16 -9 14 -15 11 -15 -7z"/>
<path d="M11373 3753 c-7 -2 -13 -11 -13 -19 0 -8 -9 -14 -20 -14 -11 0 -20
-4 -20 -10 0 -5 4 -10 10 -10 5 0 21 -12 36 -27 23 -25 25 -25 20 -7 -4 13 -1
26 9 34 8 7 15 23 15 36 0 23 -11 28 -37 17z"/>
<path d="M11301 3547 c-13 -32 -7 -48 21 -66 20 -13 21 -12 14 31 -9 56 -22
69 -35 35z"/>
<path d="M11395 3030 c3 -5 11 -10 16 -10 6 0 7 5 4 10 -3 6 -11 10 -16 10 -6
0 -7 -4 -4 -10z"/>
<path d="M8837 2749 c-34 -26 -55 -92 -37 -114 20 -24 26 -18 22 24 -3 32 2
44 28 75 35 39 28 48 -13 15z"/>
<path d="M8852 2579 c-17 -21 -19 -27 -7 -23 15 6 40 43 33 49 -2 1 -13 -11
-26 -26z"/>
<path d="M1580 2710 c0 -11 6 -20 14 -20 20 0 28 27 10 34 -23 9 -24 8 -24
-14z"/>
<path d="M1470 2691 c0 -6 5 -13 10 -16 6 -3 10 1 10 9 0 9 -4 16 -10 16 -5 0
-10 -4 -10 -9z"/>
<path d="M1708 2651 c-9 -11 -21 -29 -28 -40 -6 -12 -16 -21 -23 -21 -15 0
-69 -88 -64 -104 5 -14 61 47 82 89 20 40 40 65 53 65 5 0 12 7 16 15 8 21
-16 19 -36 -4z"/>
<path d="M3410 1451 c0 -6 4 -13 10 -16 6 -3 7 1 4 9 -7 18 -14 21 -14 7z"/>
<path d="M8460 1311 c0 -9 41 -23 48 -16 2 2 1 8 -3 14 -8 13 -45 15 -45 2z"/>
<path d="M8427 1253 c-7 -58 23 -101 36 -52 4 14 10 18 19 14 7 -4 1 3 -14 16
-28 24 -27 41 2 52 9 3 4 6 -11 6 -24 1 -27 -4 -32 -36z"/>
<path d="M8811 1264 c0 -11 3 -14 6 -6 3 7 2 16 -1 19 -3 4 -6 -2 -5 -13z"/>
<path d="M8440 1141 c0 -6 4 -13 10 -16 6 -3 7 1 4 9 -7 18 -14 21 -14 7z"/>
<path d="M667 4990 c-3 -14 4 -27 24 -44 16 -14 29 -34 29 -45 0 -14 6 -21 19
-21 10 0 21 -7 25 -15 3 -8 12 -15 21 -15 8 0 15 -4 15 -10 0 -12 50 -13 69
-1 10 6 1 11 -28 16 -52 9 -53 25 -1 25 29 0 40 4 40 15 0 11 -11 15 -40 15
-36 0 -40 3 -40 25 0 18 -5 25 -19 25 -10 0 -21 9 -24 20 -3 13 -11 18 -20 14
-8 -3 -18 -1 -22 5 -11 18 -42 12 -48 -9z m58 -20 c3 -5 -1 -10 -10 -10 -9 0
-13 5 -10 10 3 6 8 10 10 10 2 0 7 -4 10 -10z"/>
<path d="M460 4970 c0 -5 5 -10 10 -10 6 0 10 5 10 10 0 6 -4 10 -10 10 -5 0
-10 -4 -10 -10z"/>
<path d="M500 4583 c-8 -3 -30 -22 -47 -42 -58 -64 -57 -61 -22 -61 25 0 30
-3 25 -16 -8 -20 12 -47 27 -37 5 3 7 1 4 -4 -8 -12 14 -31 67 -58 21 -11 41
-25 43 -32 3 -7 12 -13 19 -13 8 0 17 -6 20 -14 11 -30 204 -44 277 -20 38 13
47 20 47 39 0 15 -7 26 -20 30 -11 3 -20 15 -20 26 0 11 -16 29 -39 44 -22 13
-43 31 -48 39 -4 8 -41 29 -80 46 -40 18 -73 37 -73 41 0 5 -13 9 -28 9 -15 0
-32 4 -38 9 -12 12 -94 22 -114 14z"/>
<path d="M2185 4364 c-19 -46 -20 -44 13 -44 43 0 117 26 117 40 0 20 -66 35
-76 18 -6 -9 -9 -8 -15 5 -10 26 -22 20 -39 -19z"/>
<path d="M2145 4347 c-4 -10 -5 -21 -1 -24 10 -10 18 4 13 24 -4 17 -4 17 -12
0z"/>
<path d="M1520 4310 c0 -5 7 -10 15 -10 8 0 15 5 15 10 0 6 -7 10 -15 10 -8 0
-15 -4 -15 -10z"/>
<path d="M1368 4273 c7 -3 16 -2 19 1 4 3 -2 6 -13 5 -11 0 -14 -3 -6 -6z"/>
<path d="M1420 4250 c0 -5 5 -10 10 -10 6 0 10 5 10 10 0 6 -4 10 -10 10 -5 0
-10 -4 -10 -10z"/>
<path d="M1520 4250 c0 -5 -8 -10 -17 -10 -14 0 -15 -2 -4 -12 11 -10 14 -10
18 0 3 6 11 12 19 12 8 0 14 5 14 10 0 6 -7 10 -15 10 -8 0 -15 -4 -15 -10z"/>
<path d="M40 3620 c0 -5 5 -10 10 -10 6 0 10 5 10 10 0 6 -4 10 -10 10 -5 0
-10 -4 -10 -10z"/>
<path d="M7 3593 c-11 -10 -8 -66 4 -102 8 -23 17 -31 35 -31 23 0 24 3 24 58
0 32 -5 63 -12 70 -13 13 -41 16 -51 5z"/>
<path d="M20 3446 c0 -2 7 -7 16 -10 8 -3 12 -2 9 4 -6 10 -25 14 -25 6z"/>
<path d="M50 3400 c-13 -8 -12 -10 3 -10 9 0 17 5 17 10 0 12 -1 12 -20 0z"/>
<path d="M8241 554 c0 -11 3 -14 6 -6 3 7 2 16 -1 19 -3 4 -6 -2 -5 -13z"/>
</g>
</svg>
